<svg width="165" height="165" viewBox="0 0 165 165" fill="none" xmlns="http://www.w3.org/2000/svg">
<path d="M164.625 100.85V113.99H158.845C160.575 109.79 161.945 105.39 162.905 100.85H164.625Z" fill="#1B2A58"/>
<path d="M164.625 0.459961V84.62C164.625 90.19 164.035 95.62 162.905 100.86H139.665V42.64L125.095 17.59L110.525 42.64V100.86H98.115V65.63L83.545 45.32L68.975 65.63V100.86H56.565V86.33L41.995 70.28L27.425 86.33V100.86H3.155V77.8C3.155 35.09 37.775 0.459961 80.485 0.459961H164.645H164.625Z" fill="white"/>
<path d="M139.665 100.85H162.905C161.945 105.39 160.575 109.79 158.845 113.99H139.665V100.85Z" fill="#1B2A58"/>
<path d="M139.665 113.99H158.845C154.525 124.53 147.925 133.91 139.665 141.51V113.99Z" fill="#DCBC65"/>
<path d="M139.665 141.51V164.37H110.515V158.41C121.495 154.96 131.405 149.13 139.665 141.52V141.51Z" fill="#1B2A58"/>
<path d="M139.665 113.99V141.51C131.405 149.12 121.495 154.95 110.515 158.4V113.99H139.665Z" fill="#1B2A58"/>
<path d="M139.665 100.85H110.515V113.99H139.665V100.85Z" fill="#1B2A58"/>
<path d="M139.665 42.63V100.85H110.515V42.63L125.095 17.58L139.665 42.63Z" fill="#1B2A58"/>
<path d="M110.515 113.99V158.4C106.505 159.66 102.365 160.6 98.105 161.19V113.99H110.515Z" fill="#DCBC65"/>
<path d="M110.515 100.85H98.105V113.99H110.515V100.85Z" fill="#1B2A58"/>
<path d="M98.105 161.19V164.36H68.955V161.95H87.285C90.955 161.95 94.565 161.69 98.105 161.19Z" fill="#1B2A58"/>
<path d="M98.105 113.99V161.19C94.575 161.69 90.955 161.95 87.285 161.95H68.955V113.99H98.105Z" fill="#1B2A58"/>
<path d="M98.115 100.85H68.965V113.99H98.115V100.85Z" fill="#1B2A58"/>
<path d="M98.105 65.6201V100.85H68.965V65.6201L83.535 45.3101L98.105 65.6201Z" fill="#1B2A58"/>
<path d="M68.965 113.99H56.555V161.95H68.965V113.99Z" fill="#DCBC65"/>
<path d="M68.965 100.85H56.555V113.99H68.965V100.85Z" fill="#1B2A58"/>
<path d="M56.555 161.95H27.405V164.36H56.555V161.95Z" fill="#1B2A58"/>
<path d="M56.555 113.99H27.405V161.95H56.555V113.99Z" fill="#1B2A58"/>
<path d="M56.555 100.85H27.405V113.99H56.555V100.85Z" fill="#1B2A58"/>
<path d="M56.555 86.33V100.85H27.405V86.33L41.985 70.27L56.555 86.33Z" fill="#1B2A58"/>
<path d="M27.405 113.99H3.13499V161.95H27.405V113.99Z" fill="#DCBC65"/>
<path d="M27.405 100.85H3.13499V113.99H27.405V100.85Z" fill="#1B2A58"/>
<path d="M3.145 100.85H0.574997V113.99H3.145V100.85Z" fill="#1B2A58"/>
</svg>
