<svg width="1498" height="251" viewBox="0 0 1498 251" fill="none" xmlns="http://www.w3.org/2000/svg">
<path d="M204.625 143.42V156.56H198.845C200.575 152.36 201.945 147.96 202.905 143.42H204.625Z" fill="white"/>
<path d="M204.625 43.03V127.19C204.625 132.76 204.035 138.19 202.905 143.43H179.665V85.21L165.095 60.16L150.525 85.21V143.43H138.115V108.2L123.545 87.89L108.975 108.2V143.43H96.565V128.9L81.995 112.85L67.425 128.9V143.43H43.155V120.37C43.155 77.66 77.775 43.03 120.485 43.03H204.645H204.625Z" fill="#1B2A58"/>
<path d="M179.665 143.42H202.905C201.945 147.96 200.575 152.36 198.845 156.56H179.665V143.42Z" fill="white"/>
<path d="M179.665 156.56H198.845C194.525 167.1 187.925 176.48 179.665 184.08V156.56Z" fill="#DCBC65"/>
<path d="M179.665 184.08V206.94H150.515V200.98C161.495 197.53 171.405 191.7 179.665 184.09V184.08Z" fill="white"/>
<path d="M179.665 156.56V184.08C171.405 191.69 161.495 197.52 150.515 200.97V156.56H179.665Z" fill="white"/>
<path d="M179.665 143.42H150.515V156.56H179.665V143.42Z" fill="white"/>
<path d="M179.665 85.2V143.42H150.515V85.2L165.095 60.15L179.665 85.2Z" fill="white"/>
<path d="M150.515 156.56V200.97C146.505 202.23 142.365 203.17 138.105 203.76V156.56H150.515Z" fill="#DCBC65"/>
<path d="M150.515 143.42H138.105V156.56H150.515V143.42Z" fill="white"/>
<path d="M138.105 203.76V206.93H108.955V204.52H127.285C130.955 204.52 134.565 204.26 138.105 203.76Z" fill="white"/>
<path d="M138.105 156.56V203.76C134.575 204.26 130.955 204.52 127.285 204.52H108.955V156.56H138.105Z" fill="white"/>
<path d="M138.115 143.42H108.965V156.56H138.115V143.42Z" fill="white"/>
<path d="M138.105 108.19V143.42H108.965V108.19L123.535 87.88L138.105 108.19Z" fill="white"/>
<path d="M108.965 156.56H96.555V204.52H108.965V156.56Z" fill="#DCBC65"/>
<path d="M108.965 143.42H96.555V156.56H108.965V143.42Z" fill="white"/>
<path d="M96.555 204.52H67.405V206.93H96.555V204.52Z" fill="white"/>
<path d="M96.555 156.56H67.405V204.52H96.555V156.56Z" fill="white"/>
<path d="M96.555 143.42H67.405V156.56H96.555V143.42Z" fill="white"/>
<path d="M96.555 128.9V143.42H67.405V128.9L81.985 112.84L96.555 128.9Z" fill="white"/>
<path d="M67.405 156.56H43.135V204.52H67.405V156.56Z" fill="#DCBC65"/>
<path d="M67.405 143.42H43.135V156.56H67.405V143.42Z" fill="white"/>
<path d="M43.145 143.42H40.575V156.56H43.145V143.42Z" fill="white"/>
<path d="M261.31 179.57V190.75H248.99V189.18H251.81C254.28 189.18 256.41 188.24 258.2 186.35C259.98 184.46 260.87 182.21 260.87 179.58H261.32L261.31 179.57ZM260.72 78.21L277.2 97.26L277.35 190.76H260.87V97.89C260.87 92.22 260.33 85.67 259.24 78.21H260.72ZM260.72 78.21L352.64 174.54L354.27 192.96L262.35 96.79L260.72 78.22V78.21ZM277.35 179.57C277.35 182.19 278.24 184.45 280.02 186.34C281.8 188.23 283.93 189.17 286.41 189.17H289.23V190.74H276.91V179.56H277.36L277.35 179.57ZM325.76 80.57H338.08V91.75H337.78C337.68 89.02 336.76 86.74 335.03 84.9C333.3 83.07 331.14 82.15 328.57 82.15H325.75V80.58L325.76 80.57ZM353.97 80.57V172.81C353.97 176.59 354.12 180 354.42 183.04C354.72 186.08 355.11 189.39 355.61 192.96H354.27L337.79 173.29V80.58H353.98L353.97 80.57ZM365.85 80.57V82.14H363.18C360.7 82.14 358.58 83.06 356.8 84.89C355.02 86.73 354.08 89.01 353.98 91.74H353.53V80.56H365.85V80.57Z" fill="#1B2A58"/>
<path d="M381.74 106.22H381.44C381.34 103.81 380.5 101.81 378.92 100.24C377.34 98.6699 375.4 97.8799 373.13 97.8799H371.2V96.3099H382.78L381.74 106.23V106.22ZM381.74 180.83L382.78 190.75H371.2V189.18H373.13C375.41 189.18 377.34 188.37 378.92 186.74C380.5 185.11 381.34 183.15 381.44 180.84H381.74V180.83ZM398.81 96.3099V190.75H381.44V96.3099H398.81ZM436.38 96.3099V102.13H398.51V96.3099H436.38ZM429.55 140.85V146.67H398.52V140.85H429.55ZM435.34 184.92L437.57 190.74H398.52V184.92H435.35H435.34ZM444.4 163.99L437.87 190.75H413.22L417.97 184.93C422.52 184.93 426.41 184.06 429.63 182.33C432.85 180.6 435.54 178.16 437.72 175.01C439.9 171.86 441.68 168.19 443.07 163.99H444.41H444.4ZM429.55 129.05V141.17H418.41V140.86C421.48 140.86 423.85 139.86 425.54 137.87C427.22 135.88 428.06 133.41 428.06 130.47V129.05H429.54H429.55ZM429.55 146.36V158.64H428.07V157.22C428.07 154.28 427.23 151.82 425.55 149.82C423.87 147.83 421.49 146.78 418.42 146.67V146.36H429.56H429.55ZM436.38 93.7899V97.8799L420.34 96.3099C423.21 96.3099 426.28 96.0199 429.55 95.4399C432.82 94.8599 435.09 94.3099 436.38 93.7899ZM436.38 101.66V116.46H434.75V114.73C434.75 110.95 433.76 107.91 431.78 105.6C429.8 103.29 426.98 102.14 423.32 102.14V101.67H436.39L436.38 101.66Z" fill="#1B2A58"/>
<path d="M460.14 106.22H459.69C459.69 103.81 458.8 101.81 457.02 100.24C455.24 98.6699 453.11 97.8799 450.63 97.8799H448.7V96.3099H460.13V106.23L460.14 106.22ZM460.14 180.83V190.75H448.71V189.18H450.64C453.11 189.18 455.24 188.37 457.03 186.74C458.81 185.11 459.7 183.15 459.7 180.84H460.15L460.14 180.83ZM477.07 96.3099V190.75H459.7V96.3099H477.07ZM476.62 106.22V96.2999H488.05L487.9 97.8699H486.27C483.69 97.8699 481.54 98.6599 479.81 100.23C478.08 101.8 477.16 103.8 477.06 106.21H476.61L476.62 106.22ZM476.62 180.83H477.07C477.17 183.14 478.08 185.11 479.82 186.73C481.55 188.36 483.7 189.17 486.28 189.17H488.06V190.74H476.63V180.82L476.62 180.83Z" fill="#1B2A58"/>
<path d="M543.44 94.26C547.99 94.26 552.47 94.57 556.88 95.2C561.28 95.83 565.42 96.72 569.28 97.88C573.14 99.04 576.51 100.5 579.38 102.29L580.57 126.21H579.38C577.8 119.71 575.44 114.54 572.33 110.71C569.21 106.88 565.47 104.13 561.12 102.45C556.76 100.77 551.86 99.93 546.42 99.93C539.29 99.93 533.2 101.69 528.16 105.2C523.11 108.72 519.25 113.75 516.58 120.31C513.91 126.87 512.57 134.77 512.57 144C512.57 153.23 513.83 160.48 516.36 166.98C518.88 173.49 522.5 178.47 527.2 181.93C531.9 185.39 537.57 187.12 544.2 187.12C547.66 187.12 550.98 186.6 554.15 185.55C557.32 184.5 560.19 182.93 562.76 180.83C565.33 178.73 567.46 176.11 569.14 172.96L569.29 153.29C569.29 151.3 568.72 149.78 567.58 148.73C566.44 147.68 564.78 147.16 562.61 147.16H560.53V145.74H595.13V147.16H593.2C588.75 147.16 586.57 149.26 586.67 153.46L586.52 173.76C584.44 176.7 581.3 179.64 577.09 182.57C572.88 185.51 567.88 187.95 562.09 189.89C556.3 191.83 549.89 192.8 542.86 192.8C532.96 192.8 524.35 190.81 517.02 186.82C509.69 182.83 504 177.17 499.94 169.82C495.88 162.48 493.85 153.66 493.85 143.38C493.85 133.1 495.88 124.44 499.94 117.09C504 109.75 509.74 104.1 517.16 100.17C524.58 96.23 533.35 94.27 543.44 94.27V94.26Z" fill="#1B2A58"/>
<path d="M606.55 106.22H606.1C606.1 103.81 605.31 101.81 603.72 100.24C602.14 98.6699 600.2 97.8799 597.93 97.8799H596.15V96.3099H606.54V106.23L606.55 106.22ZM606.55 180.83V190.75H596.16V189.18H597.94C600.22 189.18 602.15 188.37 603.73 186.74C605.31 185.11 606.11 183.15 606.11 180.84H606.56L606.55 180.83ZM623.63 96.3099V190.75H606.11V96.3099H623.63ZM669.22 141.01V146.68H622.15V141.01H669.22ZM623.18 106.22V96.2999H633.57V97.8699H631.94C629.66 97.8699 627.71 98.6599 626.07 100.23C624.44 101.8 623.62 103.8 623.62 106.21H623.17L623.18 106.22ZM623.18 180.83H623.63C623.63 183.14 624.45 185.11 626.08 186.73C627.71 188.36 629.67 189.17 631.95 189.17H633.58V190.74H623.19V180.82L623.18 180.83ZM668.32 106.22H667.87C667.77 103.81 666.95 101.81 665.42 100.24C663.88 98.6699 661.93 97.8799 659.55 97.8799H657.92V96.3099H668.31V106.23L668.32 106.22ZM668.32 180.83V190.75H657.93V189.18H659.56C661.94 189.18 663.89 188.37 665.43 186.74C666.96 185.11 667.78 183.15 667.88 180.84H668.33L668.32 180.83ZM685.25 96.3099V190.75H667.88V96.3099H685.25ZM684.81 180.83H685.26C685.36 183.14 686.2 185.11 687.78 186.73C689.36 188.36 691.29 189.17 693.57 189.17H695.35V190.74H684.81V180.82V180.83ZM684.96 106.22V96.2999H695.35V97.8699H693.57C691.29 97.8699 689.36 98.6599 687.78 100.23C686.2 101.8 685.4 103.8 685.4 106.21H684.95L684.96 106.22Z" fill="#1B2A58"/>
<path d="M713.02 106.22H712.57C712.57 103.81 711.78 101.81 710.19 100.24C708.61 98.6699 706.63 97.8799 704.25 97.8799H702.47V96.3099H713.01V106.23L713.02 106.22ZM713.02 180.83V190.75H702.48V189.18H704.26C706.64 189.18 708.61 188.37 710.2 186.74C711.78 185.11 712.58 183.15 712.58 180.84H713.03L713.02 180.83ZM729.8 96.3099V190.75H712.57V96.3099H729.8ZM739.15 96.3099C742.61 96.3099 746.28 96.5999 750.14 97.1799C754 97.7599 757.56 98.8599 760.83 100.49C764.1 102.12 766.74 104.5 768.77 107.65C770.8 110.8 771.81 114.89 771.81 119.93C771.81 123.5 771.02 126.7 769.43 129.53C767.85 132.36 765.81 134.59 763.34 136.22C760.86 137.85 758.24 138.92 755.47 139.45C759.93 139.76 763.96 141.02 767.57 143.23C771.18 145.43 774.05 148.29 776.18 151.81C778.31 155.33 779.37 159.39 779.37 164.01C779.37 169.05 778.35 173.27 776.33 176.68C774.3 180.09 771.6 182.82 768.24 184.87C764.87 186.92 761.04 188.41 756.73 189.36C752.42 190.31 747.99 190.78 743.44 190.78H728.44C728.54 188.89 728.59 187 728.59 185.11H739.28C743.04 185.11 746.48 184.38 749.6 182.91C752.72 181.44 755.19 179.08 757.02 175.83C758.85 172.58 759.77 168.33 759.77 163.08C759.77 158.88 759.08 155.37 757.69 152.53C756.3 149.7 754.42 147.41 752.05 145.68C749.68 143.95 746.95 142.72 743.88 141.98C740.81 141.25 737.54 140.88 734.08 140.88V139.46C736.55 139.46 738.95 139.17 741.28 138.59C743.6 138.01 745.68 137.02 747.52 135.6C749.35 134.18 750.81 132.27 751.9 129.85C752.99 127.44 753.53 124.45 753.53 120.88C753.53 113.95 751.92 109.08 748.7 106.24C745.48 103.41 741.2 101.99 735.86 101.99H718.19C718.19 101.89 718.09 101.36 717.89 100.42C717.69 99.4799 717.39 98.1099 717 96.3299H739.12L739.15 96.3099Z" fill="#1B2A58"/>
<path d="M839.38 94.26C846.9 94.26 853.83 95.42 860.17 97.72C866.5 100.03 872 103.33 876.65 107.64C881.3 111.94 884.89 117.11 887.42 123.14C889.94 129.18 891.21 135.97 891.21 143.52C891.21 151.07 889.95 157.87 887.42 163.9C884.9 169.94 881.31 175.1 876.65 179.4C872 183.7 866.5 187.01 860.17 189.32C853.83 191.63 846.9 192.78 839.38 192.78C831.86 192.78 824.93 191.62 818.59 189.32C812.25 187.01 806.78 183.71 802.18 179.4C797.58 175.1 794.01 169.93 791.49 163.9C788.97 157.87 787.7 151.07 787.7 143.52C787.7 135.97 788.96 129.17 791.49 123.14C794.01 117.11 797.58 111.94 802.18 107.64C806.78 103.34 812.25 100.03 818.59 97.72C824.92 95.41 831.85 94.26 839.38 94.26ZM839.38 187.13C845.81 187.13 851.5 185.35 856.46 181.78C861.41 178.21 865.29 173.15 868.12 166.59C870.94 160.03 872.35 152.35 872.35 143.53C872.35 134.71 870.94 126.9 868.12 120.39C865.3 113.89 861.41 108.85 856.46 105.28C851.51 101.71 845.82 99.93 839.38 99.93C832.94 99.93 827.25 101.72 822.3 105.28C817.35 108.85 813.49 113.89 810.72 120.39C807.95 126.9 806.56 134.61 806.56 143.53C806.56 152.45 807.95 160.03 810.72 166.59C813.49 173.15 817.35 178.21 822.3 181.78C827.25 185.35 832.94 187.13 839.38 187.13Z" fill="#1B2A58"/>
<path d="M907.69 106.22H907.39C907.29 103.81 906.47 101.81 904.94 100.24C903.4 98.6699 901.55 97.8799 899.37 97.8799H897.44V96.3099H908.73L907.69 106.23V106.22ZM907.69 180.83L908.73 190.75H897.44V189.18H899.22C901.5 189.18 903.4 188.37 904.94 186.74C906.47 185.11 907.29 183.15 907.39 180.84H907.69V180.83ZM924.76 96.3099V190.75H907.24V96.3099H924.76ZM940.21 96.3099C944.56 96.3099 948.65 96.7799 952.46 97.7299C956.27 98.6699 959.64 100.17 962.56 102.22C965.48 104.27 967.76 106.92 969.39 110.17C971.02 113.42 971.84 117.36 971.84 121.98C971.84 125.86 971.05 129.67 969.46 133.39C967.88 137.12 965.5 140.26 962.33 142.83C959.16 145.4 955.2 147 950.45 147.63C952.92 148.47 955.42 150.25 957.95 152.98C960.47 155.71 962.43 158.28 963.82 160.69C964.12 161.22 964.83 162.4 965.97 164.23C967.11 166.07 968.52 168.22 970.2 170.68C971.88 173.15 973.62 175.59 975.4 178C977.38 180.73 979.16 182.91 980.75 184.53C982.33 186.16 983.99 187.34 985.72 188.07C987.45 188.81 989.41 189.17 991.59 189.17V190.74H981.79C976.44 190.74 971.94 190.22 968.28 189.17C964.62 188.12 961.52 186.49 959 184.29C956.48 182.09 954.17 179.36 952.1 176.11C951.41 174.96 950.49 173.38 949.35 171.39C948.21 169.4 947.05 167.33 945.86 165.17C944.67 163.02 943.58 160.97 942.59 159.03C941.6 157.09 940.96 155.59 940.66 154.54C939.17 151.39 937.44 148.98 935.46 147.3C933.48 145.62 931.55 144.73 929.67 144.62V143.2C929.77 143.2 930.31 143.23 931.3 143.28C932.29 143.33 933.53 143.31 935.01 143.2C937.29 143.1 939.59 142.73 941.91 142.1C944.24 141.47 946.34 140.11 948.22 138.01C950.1 135.91 951.54 132.66 952.53 128.25C952.83 127.41 953.05 126.36 953.2 125.1C953.35 123.84 953.37 122.42 953.27 120.85C953.17 117.28 952.58 114.32 951.49 111.96C950.4 109.6 949.01 107.74 947.33 106.37C945.65 105.01 943.82 104.01 941.84 103.38C939.86 102.75 937.98 102.38 936.2 102.28C933.33 102.18 930.8 102.15 928.63 102.2C926.45 102.25 925.11 102.28 924.62 102.28C924.52 102.18 924.37 101.65 924.17 100.71C923.97 99.7699 923.67 98.2999 923.28 96.2999H940.21V96.3099ZM924.47 180.83H924.77C924.87 183.25 925.76 185.24 927.44 186.81C929.12 188.38 931 189.17 933.08 189.17H934.71L934.86 190.74H923.43L924.47 180.82V180.83Z" fill="#1B2A58"/>
<path d="M1018.16 94.26C1020.44 94.26 1022.84 94.34 1025.36 94.5C1027.88 94.66 1030.33 94.89 1032.71 95.21C1035.09 95.52 1037.19 95.87 1039.02 96.23C1040.85 96.6 1042.11 96.94 1042.81 97.25L1041.62 115.19H1040.28C1040.28 110.57 1038.74 106.9 1035.68 104.17C1032.61 101.44 1028.11 100.08 1022.17 100.08C1017.42 100.08 1013.46 101.31 1010.29 103.78C1007.12 106.25 1005.49 109.37 1005.39 113.15C1005.39 114.94 1005.71 116.53 1006.36 117.95C1007 119.37 1007.97 120.7 1009.26 121.96C1010.55 123.22 1012.08 124.43 1013.86 125.58L1039.4 144C1042.76 146.1 1045.39 149.01 1047.27 152.74C1049.15 156.47 1050.04 160.69 1049.94 165.41C1049.74 170.87 1048.28 175.67 1045.56 179.81C1042.84 183.96 1039.1 187.16 1034.35 189.41C1029.6 191.67 1024.1 192.79 1017.87 192.79C1014.11 192.79 1010.45 192.48 1006.88 191.85C1003.32 191.22 1000.2 190.3 997.53 189.1C994.86 187.89 992.68 186.45 991 184.77C990.41 182.88 990.16 180.57 990.26 177.84C990.36 175.11 990.73 172.33 991.37 169.5C992.01 166.67 992.78 164.25 993.67 162.26H995.15C994.85 166.98 995.62 171.23 997.45 175.01C999.28 178.79 1002 181.75 1005.62 183.9C1009.23 186.05 1013.51 187.13 1018.46 187.13C1024.3 187.03 1028.75 185.53 1031.82 182.64C1034.89 179.76 1036.42 176.16 1036.42 171.86C1036.42 169.13 1035.7 166.67 1034.27 164.46C1032.83 162.26 1030.48 160.16 1027.22 158.16L1003.31 140.53C999.05 137.91 996.03 134.58 994.25 130.53C992.47 126.49 991.77 122.22 992.17 117.7C992.47 112.98 993.75 108.86 996.03 105.34C998.31 101.83 1001.35 99.1 1005.16 97.16C1008.97 95.22 1013.3 94.25 1018.15 94.25L1018.16 94.26ZM1042.96 95.68L1042.81 98.36H1028.7V95.68H1042.96Z" fill="#1B2A58"/>
<path d="M1151.7 125.91C1151.48 125.91 1151.3 125.79 1151.17 125.56L1141.7 88.96C1141.34 87.55 1140.97 86.27 1140.57 85.14C1140.17 84.01 1139.77 83.02 1139.37 82.17C1139.15 81.7 1138.67 81.29 1137.94 80.93C1137.21 80.58 1136.62 80.4 1136.17 80.4C1136.08 80.4 1136.04 80.28 1136.04 80.05C1136.04 79.2 1136.2 78.68 1136.51 78.5L1139.51 78.71C1140.13 78.76 1140.74 78.81 1141.34 78.85C1141.94 78.9 1142.51 78.92 1143.04 78.92C1144.37 78.92 1145.69 78.86 1147.01 78.74C1148.32 78.62 1149.4 78.54 1150.24 78.49V78.7C1150.24 79.83 1150.08 80.4 1149.77 80.4C1148.7 80.4 1147.86 80.66 1147.24 81.18C1146.62 81.7 1146.31 82.31 1146.31 83.02C1146.31 83.49 1146.47 84.36 1146.78 85.63L1155.25 117.07L1163.32 104.14L1158.39 85.42C1158.21 84.76 1158.01 84.16 1157.79 83.62C1157.57 83.08 1157.35 82.6 1157.12 82.17C1156.85 81.7 1156.35 81.29 1155.62 80.93C1154.89 80.58 1154.3 80.4 1153.85 80.4C1153.76 80.4 1153.72 80.28 1153.72 80.05C1153.72 79.3 1153.9 78.78 1154.25 78.5C1154.65 78.5 1155.26 78.54 1156.08 78.61C1156.9 78.68 1157.8 78.75 1158.78 78.82C1159.76 78.89 1160.6 78.93 1161.31 78.93C1162.02 78.93 1162.84 78.89 1163.78 78.82C1164.71 78.75 1165.58 78.68 1166.38 78.61C1167.18 78.54 1167.71 78.5 1167.98 78.5V78.71C1167.98 79.04 1167.92 79.41 1167.81 79.81C1167.7 80.21 1167.58 80.41 1167.44 80.41C1166.37 80.41 1165.54 80.67 1164.94 81.19C1164.34 81.71 1164.04 82.32 1164.04 83.03C1164.04 83.64 1164.17 84.51 1164.44 85.64L1167.44 97.02L1173.11 87.27C1174.22 85.39 1174.78 84 1174.78 83.1C1174.78 82.2 1174.39 81.53 1173.61 81.09C1172.83 80.64 1172.2 80.42 1171.71 80.42C1171.62 80.42 1171.58 80.3 1171.58 80.07C1171.58 79.22 1171.74 78.7 1172.05 78.52C1175.92 78.8 1178.03 78.94 1178.38 78.94C1179.67 78.94 1181 78.87 1182.38 78.73C1183.8 78.59 1184.69 78.52 1185.05 78.52C1185.05 79.79 1184.89 80.43 1184.58 80.43C1184.14 80.43 1183.57 80.56 1182.88 80.82C1182.19 81.08 1181.56 81.4 1180.98 81.77C1180.4 82.15 1179.98 82.48 1179.71 82.76C1178.87 83.7 1177.31 86.06 1175.04 89.83L1168.37 100.71L1172.9 117.53L1189.1 87.29C1190.21 85.27 1190.77 83.88 1190.77 83.12C1190.77 82.23 1190.38 81.55 1189.6 81.11C1188.82 80.66 1188.19 80.44 1187.7 80.44C1187.61 80.44 1187.57 80.32 1187.57 80.09C1187.57 79.24 1187.73 78.72 1188.04 78.54C1191.91 78.82 1194.02 78.96 1194.37 78.96C1195.66 78.96 1196.99 78.89 1198.37 78.75C1199.79 78.61 1200.68 78.54 1201.04 78.54C1201.04 79.81 1200.88 80.45 1200.57 80.45C1200.13 80.45 1199.56 80.58 1198.87 80.84C1198.18 81.1 1197.55 81.42 1196.97 81.79C1196.39 82.17 1195.97 82.5 1195.7 82.78C1194.99 83.68 1194.23 84.7 1193.43 85.85C1192.63 87 1191.83 88.33 1191.03 89.84L1172.3 123.68C1171.5 125.19 1170.54 125.94 1169.43 125.94C1169.16 125.94 1168.99 125.82 1168.9 125.59L1164.23 107.71L1154.5 123.68C1153.57 125.19 1152.63 125.94 1151.7 125.94V125.91Z" fill="#1B2A58"/>
<path d="M1194.85 125.41C1192.54 125.41 1190.77 124.46 1189.55 122.55C1188.33 120.64 1187.72 118.02 1187.72 114.67C1187.72 112.41 1188.16 110.09 1189.05 107.71C1189.94 105.33 1191.12 103.12 1192.58 101.07C1194.05 99.02 1195.65 97.37 1197.38 96.12C1199.11 94.87 1200.82 94.25 1202.51 94.25C1204.55 94.25 1206.03 94.8 1206.94 95.91C1207.85 97.02 1208.31 98.23 1208.31 99.55C1208.31 101.58 1207.31 103.63 1205.31 105.7C1203.98 107.02 1202.54 108.16 1201.01 109.13C1199.48 110.1 1198 110.83 1196.58 111.32C1195.16 111.81 1193.96 112.06 1192.98 112.06C1192.8 112.06 1192.71 112.88 1192.71 114.53C1192.71 116.65 1193.1 118.26 1193.88 119.37C1194.66 120.48 1195.71 121.03 1197.05 121.03C1198.25 121.03 1199.33 120.65 1200.28 119.9C1201.24 119.15 1202.16 118.3 1203.05 117.36L1203.25 117.15C1203.34 117.15 1203.5 117.37 1203.75 117.82C1203.99 118.27 1204.12 118.59 1204.12 118.77C1203.72 119.52 1203.01 120.42 1201.99 121.46C1200.97 122.5 1199.83 123.42 1198.59 124.22C1197.35 125.02 1196.1 125.42 1194.86 125.42L1194.85 125.41ZM1193.45 109.58C1194.25 109.58 1195.22 109.27 1196.35 108.66C1197.48 108.05 1198.59 107.24 1199.68 106.22C1200.77 105.21 1201.68 104.09 1202.41 102.86C1203.14 101.64 1203.51 100.43 1203.51 99.26C1203.51 97.85 1202.95 97.14 1201.84 97.14C1200.73 97.14 1199.73 97.6 1198.71 98.52C1197.69 99.44 1196.77 100.57 1195.94 101.91C1195.12 103.25 1194.45 104.61 1193.94 105.97C1193.43 107.34 1193.17 108.44 1193.17 109.29C1193.17 109.48 1193.26 109.57 1193.44 109.57L1193.45 109.58Z" fill="#1B2A58"/>
<path d="M1226.4 125.41C1225.69 125.41 1225.13 125.07 1224.73 124.39C1224.33 123.71 1224.13 122.82 1224.13 121.74C1224.13 121.36 1224.16 120.86 1224.23 120.22C1224.3 119.58 1224.42 118.84 1224.6 117.99L1224.93 116.15C1224.35 117.28 1223.55 118.56 1222.53 120C1221.51 121.44 1220.39 122.68 1219.16 123.74C1217.94 124.8 1216.73 125.33 1215.53 125.33C1213.57 125.33 1212.03 124.4 1210.9 122.54C1209.77 120.68 1209.2 118.43 1209.2 115.79C1209.2 113.15 1209.76 110.56 1210.87 108.02C1211.98 105.48 1213.46 103.17 1215.3 101.1C1217.14 99.03 1219.2 97.37 1221.47 96.12C1223.74 94.87 1226 94.25 1228.27 94.25C1230.05 94.25 1231.67 94.56 1233.14 95.17L1229.27 116.44C1229.14 117.24 1229.04 117.84 1228.97 118.24C1228.9 118.64 1228.87 119.05 1228.87 119.48C1228.87 120.52 1229.09 121.03 1229.54 121.03C1229.89 121.03 1230.33 120.82 1230.84 120.39C1231.35 119.97 1231.86 119.48 1232.37 118.94C1232.88 118.4 1233.27 117.96 1233.54 117.63L1233.94 117.14C1234.03 117.14 1234.19 117.36 1234.44 117.81C1234.68 118.26 1234.81 118.58 1234.81 118.76C1234.45 119.42 1233.79 120.28 1232.81 121.34C1231.83 122.4 1230.77 123.34 1229.61 124.17C1228.45 124.99 1227.39 125.41 1226.41 125.41H1226.4ZM1217.53 121.24C1218.37 121.24 1219.26 120.77 1220.2 119.83C1221.13 118.89 1222.04 117.64 1222.93 116.09C1223.82 114.54 1224.62 112.84 1225.33 111C1226.04 109.16 1226.55 107.37 1226.86 105.63L1228.19 98.42C1227.66 97.81 1226.75 97.5 1225.46 97.5C1224.17 97.5 1222.79 97.99 1221.46 98.98C1220.13 99.97 1218.9 101.28 1217.79 102.9C1216.68 104.52 1215.79 106.34 1215.12 108.34C1214.45 110.34 1214.12 112.33 1214.12 114.31C1214.12 118.93 1215.25 121.23 1217.52 121.23L1217.53 121.24Z" fill="#1B2A58"/>
<path d="M1241.21 125.41C1240.54 125.41 1240 125.07 1239.58 124.39C1239.16 123.71 1238.95 122.82 1238.95 121.74C1238.95 121.36 1238.98 120.86 1239.05 120.22C1239.12 119.58 1239.24 118.84 1239.42 117.99L1245.69 83.72C1245.82 83.01 1245.89 82.35 1245.89 81.74C1245.89 80.85 1244.53 80.4 1241.82 80.4C1241.69 80.4 1241.62 80.26 1241.62 79.98C1241.62 79.41 1241.8 78.94 1242.15 78.57C1243.66 78.43 1245.13 78.19 1246.55 77.86C1247.97 77.53 1249.35 77.11 1250.68 76.59C1250.95 76.73 1251.08 77.18 1251.08 77.93C1251.08 78.21 1251 78.79 1250.85 79.66C1250.69 80.53 1250.48 81.72 1250.22 83.23L1243.89 117.5C1243.76 118.06 1243.69 118.65 1243.69 119.27C1243.69 120.45 1243.91 121.04 1244.36 121.04C1244.63 121.04 1244.95 120.91 1245.33 120.65C1245.71 120.39 1246.1 120.07 1246.5 119.7C1247.17 119.09 1247.92 118.24 1248.77 117.16C1248.9 117.16 1249.08 117.38 1249.3 117.83C1249.52 118.28 1249.63 118.6 1249.63 118.78C1249.27 119.44 1248.6 120.3 1247.6 121.36C1246.6 122.42 1245.52 123.36 1244.37 124.19C1243.21 125.01 1242.17 125.43 1241.24 125.43L1241.21 125.41Z" fill="#1B2A58"/>
<path d="M1256.9 125.41C1256.19 125.41 1255.63 125.07 1255.23 124.39C1254.83 123.71 1254.63 122.82 1254.63 121.74C1254.63 121.36 1254.66 120.87 1254.73 120.26C1254.8 119.65 1254.92 118.89 1255.1 118L1258.7 98.29H1253.97C1253.84 98.29 1253.77 98.03 1253.77 97.51C1253.77 96.9 1254.04 96.17 1254.57 95.32H1259.24L1260.84 86.7C1260.88 86.23 1261.97 85.99 1264.11 85.99C1264.73 85.99 1265.13 86.01 1265.31 86.06L1263.64 95.32H1269.71C1269.93 95.32 1270.04 95.63 1270.04 96.24C1270.04 96.81 1269.84 97.49 1269.44 98.29H1263.11L1259.58 117.51C1259.45 118.07 1259.38 118.66 1259.38 119.28C1259.38 120.46 1259.6 121.05 1260.05 121.05C1260.8 121.05 1261.55 120.61 1262.28 119.74C1263.01 118.87 1263.6 118.17 1264.05 117.66L1264.45 117.17C1264.54 117.17 1264.71 117.39 1264.95 117.84C1265.19 118.29 1265.32 118.61 1265.32 118.79C1264.92 119.45 1264.23 120.31 1263.25 121.37C1262.27 122.43 1261.21 123.37 1260.05 124.2C1258.89 125.02 1257.85 125.44 1256.92 125.44L1256.9 125.41Z" fill="#1B2A58"/>
<path d="M1290.38 125.41C1289.67 125.41 1289.11 125.07 1288.71 124.39C1288.31 123.71 1288.11 122.82 1288.11 121.74C1288.11 121.36 1288.14 120.87 1288.21 120.26C1288.28 119.65 1288.4 118.89 1288.58 118L1290.91 106.34C1291.09 105.54 1291.21 104.82 1291.28 104.18C1291.35 103.54 1291.38 102.99 1291.38 102.52C1291.38 100.5 1290.96 99.48 1290.11 99.48C1289.4 99.48 1288.42 100.07 1287.18 101.25C1285.94 102.43 1284.65 103.98 1283.31 105.91C1281.98 107.84 1280.77 109.98 1279.68 112.34C1278.59 114.7 1277.8 117.07 1277.31 119.48L1276.18 124.99C1275.65 125.18 1274.96 125.27 1274.11 125.27C1273.26 125.27 1272.51 125.17 1271.84 124.99L1279.04 85.49C1279.44 83.42 1279.64 82.17 1279.64 81.75C1279.64 80.86 1278.28 80.41 1275.57 80.41C1275.44 80.41 1275.37 80.27 1275.37 79.99C1275.37 79.42 1275.55 78.95 1275.9 78.58C1278.92 78.3 1281.72 77.64 1284.3 76.6C1284.57 76.74 1284.7 77.19 1284.7 77.94C1284.7 78.13 1284.63 78.66 1284.5 79.53C1284.37 80.4 1284.14 81.64 1283.83 83.24L1279.23 108.18C1279.45 107.76 1279.81 107.18 1280.3 106.45C1280.79 105.72 1281.41 104.84 1282.17 103.8C1283.15 102.39 1284.3 100.95 1285.64 99.49C1286.97 98.03 1288.28 96.79 1289.57 95.78C1290.86 94.77 1291.95 94.26 1292.84 94.26C1295.06 94.26 1296.17 95.81 1296.17 98.92C1296.17 99.96 1296.09 101.12 1295.94 102.42C1295.78 103.72 1295.55 105.12 1295.24 106.62L1293.04 117.5C1292.91 118.06 1292.84 118.65 1292.84 119.27C1292.84 120.45 1293.06 121.04 1293.51 121.04C1294.26 121.04 1295.01 120.6 1295.74 119.73C1296.47 118.86 1297.06 118.16 1297.51 117.65L1297.91 117.16C1298 117.16 1298.16 117.38 1298.41 117.83C1298.65 118.28 1298.78 118.6 1298.78 118.78C1298.42 119.44 1297.75 120.3 1296.75 121.36C1295.75 122.42 1294.67 123.36 1293.52 124.19C1292.36 125.01 1291.32 125.43 1290.39 125.43L1290.38 125.41Z" fill="#1B2A58"/>
<path d="M1134.24 190.96C1134.15 190.87 1134.11 190.63 1134.11 190.25C1134.11 189.45 1134.27 189.05 1134.58 189.05C1134.94 189.05 1135.5 188.97 1136.28 188.8C1137.06 188.64 1137.8 188.41 1138.51 188.13C1139.22 187.85 1139.62 187.59 1139.71 187.35C1140.55 185.65 1141.29 183.56 1141.91 181.06L1149.18 153.43C1149.49 152.25 1149.71 151.32 1149.85 150.64C1149.98 149.96 1150.05 149.1 1150.05 148.06C1150.05 147.68 1149.74 147.35 1149.12 147.07C1148.5 146.79 1147.83 146.56 1147.12 146.4C1146.41 146.24 1145.88 146.15 1145.52 146.15C1145.43 146.15 1145.39 145.99 1145.39 145.66C1145.39 144.91 1145.52 144.44 1145.79 144.25L1152.06 144.39C1153.35 144.44 1154.51 144.44 1155.56 144.39C1156.6 144.34 1157.55 144.3 1158.39 144.25C1158.61 146.18 1159.13 150.07 1159.96 155.91C1160.78 161.75 1161.95 169.52 1163.46 179.23C1163.46 179.28 1163.48 179.3 1163.53 179.3C1163.66 179.3 1163.73 179.25 1163.73 179.16L1175.59 153.79L1179.79 144.25C1180.99 144.39 1182.75 144.46 1185.06 144.46C1185.81 144.46 1186.68 144.44 1187.66 144.39C1188.64 144.34 1189.7 144.27 1190.86 144.18C1190.95 144.42 1190.95 144.82 1190.86 145.38C1190.77 145.95 1190.66 146.23 1190.53 146.23C1189.95 146.23 1189.34 146.4 1188.7 146.72C1188.06 147.05 1187.58 147.45 1187.27 147.92C1186.69 148.67 1186.31 149.68 1186.14 150.92C1185.96 152.17 1185.83 153.26 1185.74 154.21L1183.14 181.2C1182.87 183.65 1182.74 185.51 1182.74 186.78C1182.74 187.77 1183.09 188.38 1183.81 188.62C1184.56 188.9 1185.5 189.04 1186.61 189.04C1186.7 189.04 1186.74 189.25 1186.74 189.68C1186.74 190.25 1186.61 190.67 1186.34 190.95C1184.3 190.86 1182.66 190.76 1181.44 190.67C1180.22 190.58 1179.43 190.55 1179.07 190.6L1172.07 190.95C1171.98 190.67 1171.94 190.55 1171.94 190.6C1171.94 190.32 1172 189.99 1172.11 189.61C1172.22 189.23 1172.32 189.04 1172.41 189.04C1172.81 189.04 1173.32 188.99 1173.94 188.9C1174.56 188.81 1175.14 188.65 1175.67 188.44C1176.2 188.23 1176.51 188 1176.6 187.77C1177.13 186.45 1177.45 185.42 1177.57 184.66C1177.68 183.91 1177.8 182.82 1177.94 181.41L1180.61 153.85C1180.74 152.44 1180.81 151.52 1180.81 151.09C1180.81 150.81 1180.68 150.67 1180.41 150.67C1180.32 150.67 1180.25 150.77 1180.21 150.95L1162.81 188.54C1162.63 188.96 1162.22 189.46 1161.58 190.02C1160.94 190.59 1160.35 190.87 1159.81 190.87C1159.72 190.87 1159.54 190.82 1159.28 190.73L1153.61 150.67L1153.48 150.53C1153.35 150.53 1153.28 150.58 1153.28 150.67L1145.48 181.12C1145.08 182.72 1144.77 184.01 1144.55 184.97C1144.33 185.94 1144.22 186.61 1144.22 186.98C1144.22 187.22 1144.49 187.5 1145.02 187.83C1145.55 188.16 1146.19 188.44 1146.92 188.68C1147.65 188.92 1148.26 189.03 1148.75 189.03C1148.84 189.03 1148.88 189.17 1148.88 189.45C1148.88 189.87 1148.77 190.37 1148.55 190.93C1146.51 190.84 1144.89 190.75 1143.72 190.68C1142.54 190.61 1141.84 190.57 1141.62 190.57L1134.29 190.92L1134.24 190.96Z" fill="#1B2A58"/>
<path d="M1209.11 191.17C1208.4 191.17 1207.84 190.83 1207.44 190.15C1207.04 189.47 1206.84 188.58 1206.84 187.5C1206.84 187.12 1206.87 186.62 1206.94 185.98C1207.01 185.34 1207.13 184.6 1207.31 183.75L1207.64 181.91C1207.06 183.04 1206.26 184.32 1205.24 185.76C1204.22 187.2 1203.1 188.44 1201.87 189.5C1200.65 190.56 1199.44 191.09 1198.24 191.09C1196.28 191.09 1194.74 190.16 1193.61 188.3C1192.48 186.44 1191.91 184.19 1191.91 181.55C1191.91 178.91 1192.47 176.32 1193.58 173.78C1194.69 171.24 1196.17 168.93 1198.01 166.86C1199.85 164.79 1201.91 163.13 1204.18 161.88C1206.45 160.63 1208.71 160.01 1210.98 160.01C1212.76 160.01 1214.38 160.32 1215.85 160.93L1211.98 182.2C1211.85 183 1211.75 183.6 1211.68 184C1211.61 184.4 1211.58 184.81 1211.58 185.24C1211.58 186.28 1211.8 186.79 1212.25 186.79C1212.6 186.79 1213.04 186.58 1213.55 186.15C1214.06 185.73 1214.57 185.24 1215.08 184.7C1215.59 184.16 1215.98 183.72 1216.25 183.39L1216.65 182.9C1216.74 182.9 1216.9 183.12 1217.15 183.57C1217.39 184.02 1217.52 184.34 1217.52 184.52C1217.16 185.18 1216.5 186.04 1215.52 187.1C1214.54 188.16 1213.48 189.1 1212.32 189.93C1211.16 190.75 1210.1 191.17 1209.12 191.17H1209.11ZM1200.25 187C1201.09 187 1201.98 186.53 1202.92 185.59C1203.85 184.65 1204.76 183.4 1205.65 181.85C1206.54 180.3 1207.34 178.6 1208.05 176.76C1208.76 174.92 1209.27 173.13 1209.58 171.39L1210.91 164.18C1210.38 163.57 1209.47 163.26 1208.18 163.26C1206.89 163.26 1205.51 163.75 1204.18 164.74C1202.85 165.73 1201.62 167.04 1200.51 168.66C1199.4 170.28 1198.51 172.1 1197.84 174.1C1197.17 176.1 1196.84 178.09 1196.84 180.07C1196.84 184.69 1197.97 186.99 1200.24 186.99L1200.25 187Z" fill="#1B2A58"/>
<path d="M1240.33 191.17C1239.62 191.17 1239.06 190.83 1238.66 190.15C1238.26 189.47 1238.06 188.58 1238.06 187.5C1238.06 187.12 1238.09 186.63 1238.16 186.02C1238.23 185.41 1238.35 184.65 1238.53 183.76L1240.86 172.1C1241.04 171.3 1241.16 170.58 1241.23 169.94C1241.3 169.3 1241.33 168.75 1241.33 168.28C1241.33 166.26 1240.91 165.24 1240.06 165.24C1239.35 165.24 1238.38 165.8 1237.16 166.94C1235.94 168.07 1234.66 169.59 1233.33 171.5C1232 173.41 1230.79 175.55 1229.7 177.93C1228.61 180.31 1227.8 182.75 1227.27 185.24L1226.14 190.75C1225.61 190.94 1224.92 191.03 1224.07 191.03C1223.22 191.03 1222.47 190.93 1221.8 190.75L1225.73 168.99C1225.91 168.14 1226.01 167.48 1226.03 167.01C1226.05 166.54 1226.06 166.26 1226.06 166.16C1226.06 164.98 1225.84 164.39 1225.39 164.39C1225.21 164.39 1224.98 164.5 1224.69 164.71C1224.4 164.92 1224.08 165.19 1223.72 165.52C1223.14 166.04 1222.48 166.77 1221.72 167.71C1221.63 167.71 1221.46 167.49 1221.22 167.04C1220.98 166.59 1220.85 166.27 1220.85 166.09C1221.21 165.43 1221.85 164.63 1222.78 163.69C1223.71 162.75 1224.71 161.9 1225.78 161.15C1226.85 160.4 1227.76 160.02 1228.51 160.02C1229.22 160.02 1229.78 160.36 1230.18 161.04C1230.58 161.72 1230.78 162.61 1230.78 163.69C1230.78 164.68 1230.65 165.93 1230.38 167.43L1229.18 173.93C1229.4 173.51 1229.76 172.93 1230.25 172.2C1230.74 171.47 1231.36 170.59 1232.12 169.55C1233.1 168.14 1234.25 166.7 1235.59 165.24C1236.92 163.78 1238.23 162.54 1239.52 161.53C1240.81 160.52 1241.9 160.01 1242.79 160.01C1245.01 160.01 1246.12 161.56 1246.12 164.67C1246.12 165.71 1246.04 166.87 1245.89 168.17C1245.73 169.47 1245.5 170.87 1245.19 172.37L1242.99 183.25C1242.86 183.81 1242.79 184.4 1242.79 185.02C1242.79 186.2 1243.01 186.79 1243.46 186.79C1243.81 186.79 1244.25 186.58 1244.76 186.15C1245.27 185.73 1245.78 185.24 1246.29 184.7C1246.8 184.16 1247.19 183.72 1247.46 183.39L1247.86 182.9C1247.95 182.9 1248.12 183.12 1248.36 183.57C1248.6 184.02 1248.73 184.34 1248.73 184.52C1248.37 185.18 1247.7 186.04 1246.7 187.1C1245.7 188.16 1244.62 189.1 1243.47 189.93C1242.31 190.75 1241.27 191.17 1240.34 191.17H1240.33Z" fill="#1B2A58"/>
<path d="M1269.27 191.17C1268.56 191.17 1268 190.83 1267.6 190.15C1267.2 189.47 1267 188.58 1267 187.5C1267 187.12 1267.03 186.62 1267.1 185.98C1267.17 185.34 1267.29 184.6 1267.47 183.75L1267.8 181.91C1267.22 183.04 1266.42 184.32 1265.4 185.76C1264.38 187.2 1263.26 188.44 1262.03 189.5C1260.81 190.56 1259.6 191.09 1258.4 191.09C1256.44 191.09 1254.9 190.16 1253.77 188.3C1252.64 186.44 1252.07 184.19 1252.07 181.55C1252.07 178.91 1252.63 176.32 1253.74 173.78C1254.85 171.24 1256.33 168.93 1258.17 166.86C1260.01 164.79 1262.07 163.13 1264.34 161.88C1266.61 160.63 1268.87 160.01 1271.14 160.01C1272.92 160.01 1274.54 160.32 1276.01 160.93L1272.14 182.2C1272.01 183 1271.91 183.6 1271.84 184C1271.77 184.4 1271.74 184.81 1271.74 185.24C1271.74 186.28 1271.96 186.79 1272.41 186.79C1272.76 186.79 1273.2 186.58 1273.71 186.15C1274.22 185.73 1274.73 185.24 1275.24 184.7C1275.75 184.16 1276.14 183.72 1276.41 183.39L1276.81 182.9C1276.9 182.9 1277.06 183.12 1277.31 183.57C1277.55 184.02 1277.68 184.34 1277.68 184.52C1277.32 185.18 1276.66 186.04 1275.68 187.1C1274.7 188.16 1273.64 189.1 1272.48 189.93C1271.32 190.75 1270.26 191.17 1269.28 191.17H1269.27ZM1260.41 187C1261.25 187 1262.14 186.53 1263.08 185.59C1264.01 184.65 1264.92 183.4 1265.81 181.85C1266.7 180.3 1267.5 178.6 1268.21 176.76C1268.92 174.92 1269.43 173.13 1269.74 171.39L1271.07 164.18C1270.54 163.57 1269.63 163.26 1268.34 163.26C1267.05 163.26 1265.67 163.75 1264.34 164.74C1263.01 165.73 1261.78 167.04 1260.67 168.66C1259.56 170.28 1258.67 172.1 1258 174.1C1257.33 176.1 1257 178.09 1257 180.07C1257 184.69 1258.13 186.99 1260.4 186.99L1260.41 187Z" fill="#1B2A58"/>
<path d="M1287.76 207.21C1284.69 207.21 1282.19 206.6 1280.26 205.37C1278.33 204.14 1277.36 202.45 1277.36 200.28C1277.36 198.49 1277.88 196.98 1278.93 195.76C1279.97 194.53 1281.25 193.49 1282.76 192.62C1284.27 191.75 1285.67 190.98 1286.96 190.32L1285.76 189.47C1284.65 188.72 1284.09 187.87 1284.09 186.93C1284.09 186.36 1284.47 185.75 1285.22 185.09C1285.98 184.43 1286.88 183.82 1287.92 183.25C1288.96 182.68 1289.91 182.31 1290.75 182.12C1289.86 182.12 1288.91 181.89 1287.88 181.41C1286.77 180.94 1285.71 180.08 1284.71 178.83C1283.71 177.58 1283.21 176.11 1283.21 174.41C1283.21 171.77 1283.82 169.36 1285.04 167.17C1286.26 164.98 1287.83 163.23 1289.74 161.91C1291.65 160.59 1293.67 159.93 1295.81 159.93C1297.01 159.93 1298.04 160.08 1298.91 160.39C1299.78 160.7 1300.66 161.01 1301.58 161.34C1302.49 161.67 1303.59 161.83 1304.88 161.83H1307.75C1308.02 161.83 1308.15 162.02 1308.15 162.4C1308.15 162.73 1308.07 163.13 1307.92 163.6C1307.76 164.07 1307.6 164.4 1307.42 164.59H1303.69C1303.42 164.59 1303.29 164.73 1303.29 165.01C1303.56 166.71 1303.69 167.93 1303.69 168.68C1303.69 171.41 1303.13 173.79 1302.02 175.82C1300.91 177.85 1299.44 179.4 1297.62 180.48C1296.6 181.14 1295.54 181.73 1294.45 182.25C1293.36 182.77 1292.45 183.26 1291.72 183.73C1290.99 184.2 1290.62 184.72 1290.62 185.28C1290.62 185.7 1291.12 186.15 1292.12 186.62C1293.12 187.09 1294.28 187.56 1295.59 188.03C1296.9 188.5 1298 188.97 1298.89 189.44C1300.13 190.1 1301.19 191.02 1302.06 192.2C1302.93 193.38 1303.36 194.72 1303.36 196.23C1303.36 199.57 1301.95 202.24 1299.13 204.21C1296.31 206.19 1292.52 207.18 1287.77 207.18L1287.76 207.21ZM1291.02 204.17C1293.2 204.17 1295.09 203.69 1296.69 202.72C1298.29 201.75 1299.09 200.54 1299.09 199.08C1299.09 197.62 1298.63 196.35 1297.72 195.41C1296.81 194.47 1295.64 193.68 1294.22 193.04C1292.8 192.4 1291.31 191.83 1289.75 191.31C1288.91 191.69 1288.29 191.97 1287.92 192.16C1287.54 192.35 1286.91 192.7 1286.02 193.22C1283.53 194.63 1282.29 196.4 1282.29 198.52C1282.29 202.29 1285.2 204.17 1291.02 204.17ZM1292.29 179.73C1293.53 179.73 1294.64 179.25 1295.62 178.28C1296.6 177.32 1297.36 176.08 1297.92 174.57C1298.48 173.06 1298.75 171.53 1298.75 169.98C1298.75 168.1 1298.39 166.4 1297.68 164.89C1296.97 163.38 1295.99 162.63 1294.75 162.63C1293.51 162.63 1292.38 163.15 1291.38 164.18C1290.38 165.22 1289.6 166.55 1289.05 168.17C1288.49 169.79 1288.22 171.5 1288.22 173.29C1288.22 175.08 1288.58 176.66 1289.29 177.88C1290 179.11 1291 179.72 1292.29 179.72V179.73Z" fill="#1B2A58"/>
<path d="M1314.97 191.17C1312.66 191.17 1310.89 190.22 1309.67 188.31C1308.45 186.4 1307.84 183.78 1307.84 180.43C1307.84 178.17 1308.28 175.85 1309.17 173.47C1310.06 171.09 1311.24 168.88 1312.7 166.83C1314.17 164.78 1315.77 163.13 1317.5 161.88C1319.23 160.63 1320.94 160.01 1322.63 160.01C1324.67 160.01 1326.15 160.56 1327.06 161.67C1327.97 162.78 1328.43 163.99 1328.43 165.31C1328.43 167.34 1327.43 169.39 1325.43 171.46C1324.1 172.78 1322.66 173.92 1321.13 174.89C1319.6 175.86 1318.12 176.59 1316.7 177.08C1315.28 177.57 1314.08 177.82 1313.1 177.82C1312.92 177.82 1312.83 178.64 1312.83 180.29C1312.83 182.41 1313.22 184.02 1314 185.13C1314.78 186.24 1315.83 186.79 1317.17 186.79C1318.37 186.79 1319.45 186.41 1320.4 185.66C1321.36 184.91 1322.28 184.06 1323.17 183.12L1323.37 182.91C1323.46 182.91 1323.62 183.13 1323.87 183.58C1324.11 184.03 1324.24 184.35 1324.24 184.53C1323.84 185.28 1323.13 186.18 1322.11 187.22C1321.09 188.26 1319.95 189.18 1318.71 189.98C1317.47 190.78 1316.22 191.18 1314.98 191.18L1314.97 191.17ZM1313.57 175.35C1314.37 175.35 1315.34 175.04 1316.47 174.43C1317.6 173.82 1318.71 173.01 1319.8 171.99C1320.89 170.98 1321.8 169.86 1322.53 168.63C1323.26 167.41 1323.63 166.2 1323.63 165.03C1323.63 163.62 1323.07 162.91 1321.96 162.91C1320.85 162.91 1319.85 163.37 1318.83 164.29C1317.81 165.21 1316.89 166.34 1316.06 167.68C1315.24 169.02 1314.57 170.38 1314.06 171.74C1313.55 173.11 1313.29 174.21 1313.29 175.06C1313.29 175.25 1313.38 175.34 1313.56 175.34L1313.57 175.35Z" fill="#1B2A58"/>
<path d="M1365.11 191.17C1364.4 191.17 1363.84 190.83 1363.44 190.15C1363.04 189.47 1362.84 188.58 1362.84 187.5C1362.84 187.12 1362.87 186.63 1362.94 186.02C1363.01 185.41 1363.13 184.65 1363.31 183.76L1365.64 172.1C1365.82 171.3 1365.94 170.58 1366.01 169.94C1366.08 169.3 1366.11 168.75 1366.11 168.28C1366.11 167.53 1366.05 166.83 1365.94 166.2C1365.83 165.56 1365.46 165.25 1364.84 165.25C1364.08 165.25 1363.11 165.81 1361.91 166.95C1360.71 168.08 1359.47 169.56 1358.18 171.4C1356.89 173.24 1355.74 175.26 1354.71 177.48C1353.69 179.69 1352.98 181.88 1352.58 184.05L1351.38 190.76H1346.91L1350.64 170.69C1350.73 170.17 1350.8 169.69 1350.84 169.24C1350.88 168.79 1350.91 168.38 1350.91 168C1350.91 166.16 1350.47 165.24 1349.58 165.24C1348.78 165.24 1347.78 165.86 1346.58 167.11C1345.38 168.36 1344.16 169.97 1342.91 171.95C1341.67 173.93 1340.54 176.03 1339.54 178.24C1338.54 180.45 1337.84 182.55 1337.44 184.53L1336.24 190.75C1335.66 190.84 1335.18 190.91 1334.81 190.96C1334.43 191.01 1334.15 191.03 1333.98 191.03C1333.81 191.03 1333.54 191.01 1333.18 190.96C1332.82 190.91 1332.36 190.84 1331.78 190.75L1335.78 168.99C1335.87 168.14 1335.95 167.48 1336.01 167.01C1336.08 166.54 1336.11 166.26 1336.11 166.16C1336.11 164.98 1335.89 164.39 1335.44 164.39C1335.26 164.39 1335.03 164.5 1334.74 164.71C1334.45 164.92 1334.13 165.19 1333.77 165.52C1333.19 166.04 1332.53 166.77 1331.77 167.71C1331.68 167.71 1331.51 167.49 1331.27 167.04C1331.03 166.59 1330.9 166.27 1330.9 166.09C1331.26 165.43 1331.9 164.63 1332.83 163.69C1333.76 162.75 1334.76 161.9 1335.83 161.15C1336.9 160.4 1337.81 160.02 1338.56 160.02C1339.27 160.02 1339.83 160.36 1340.23 161.04C1340.63 161.72 1340.83 162.61 1340.83 163.69C1340.83 164.68 1340.7 165.93 1340.43 167.43L1339.23 174C1340.03 172.49 1340.97 170.93 1342.06 169.3C1343.15 167.68 1344.26 166.16 1345.39 164.74C1346.52 163.33 1347.61 162.19 1348.66 161.31C1349.7 160.44 1350.63 160 1351.43 160C1352.63 160 1353.56 160.38 1354.23 161.13C1354.85 161.88 1355.23 162.67 1355.36 163.5C1355.49 164.32 1355.56 165.4 1355.56 166.71C1355.56 167.09 1355.48 167.81 1355.33 168.87C1355.17 169.93 1354.94 171.31 1354.63 173C1355.39 171.63 1356.3 170.21 1357.36 168.73C1358.43 167.25 1359.56 165.83 1360.76 164.49C1361.96 163.15 1363.11 162.06 1364.23 161.24C1365.34 160.42 1366.3 160 1367.1 160C1368.57 160 1369.57 160.39 1370.1 161.17C1370.63 161.95 1370.9 163.11 1370.9 164.67C1370.9 165.71 1370.82 166.87 1370.67 168.17C1370.51 169.47 1370.28 170.87 1369.97 172.37L1367.77 183.25C1367.64 183.81 1367.57 184.4 1367.57 185.02C1367.57 186.2 1367.79 186.79 1368.24 186.79C1368.73 186.79 1369.22 186.58 1369.71 186.15C1370.2 185.73 1370.67 185.24 1371.11 184.7C1371.55 184.16 1371.93 183.72 1372.24 183.39L1372.64 182.9C1372.73 182.9 1372.9 183.12 1373.14 183.57C1373.38 184.02 1373.51 184.34 1373.51 184.52C1373.15 185.18 1372.48 186.04 1371.48 187.1C1370.48 188.16 1369.4 189.1 1368.25 189.93C1367.09 190.75 1366.05 191.17 1365.12 191.17H1365.11Z" fill="#1B2A58"/>
<path d="M1383 191.17C1380.69 191.17 1378.92 190.22 1377.7 188.31C1376.48 186.4 1375.87 183.78 1375.87 180.43C1375.87 178.17 1376.31 175.85 1377.2 173.47C1378.09 171.09 1379.27 168.88 1380.73 166.83C1382.2 164.78 1383.8 163.13 1385.53 161.88C1387.26 160.63 1388.97 160.01 1390.66 160.01C1392.7 160.01 1394.18 160.56 1395.09 161.67C1396 162.78 1396.46 163.99 1396.46 165.31C1396.46 167.34 1395.46 169.39 1393.46 171.46C1392.13 172.78 1390.69 173.92 1389.16 174.89C1387.63 175.86 1386.15 176.59 1384.73 177.08C1383.31 177.57 1382.11 177.82 1381.13 177.82C1380.95 177.82 1380.86 178.64 1380.86 180.29C1380.86 182.41 1381.25 184.02 1382.03 185.13C1382.81 186.24 1383.86 186.79 1385.2 186.79C1386.4 186.79 1387.48 186.41 1388.43 185.66C1389.39 184.91 1390.31 184.06 1391.2 183.12L1391.4 182.91C1391.49 182.91 1391.65 183.13 1391.9 183.58C1392.14 184.03 1392.27 184.35 1392.27 184.53C1391.87 185.28 1391.16 186.18 1390.14 187.22C1389.12 188.26 1387.98 189.18 1386.74 189.98C1385.5 190.78 1384.25 191.18 1383.01 191.18L1383 191.17ZM1381.6 175.35C1382.4 175.35 1383.37 175.04 1384.5 174.43C1385.63 173.82 1386.74 173.01 1387.83 171.99C1388.92 170.98 1389.83 169.86 1390.56 168.63C1391.29 167.41 1391.66 166.2 1391.66 165.03C1391.66 163.62 1391.1 162.91 1389.99 162.91C1388.88 162.91 1387.88 163.37 1386.86 164.29C1385.84 165.21 1384.92 166.34 1384.09 167.68C1383.27 169.02 1382.6 170.38 1382.09 171.74C1381.58 173.11 1381.32 174.21 1381.32 175.06C1381.32 175.25 1381.41 175.34 1381.59 175.34L1381.6 175.35Z" fill="#1B2A58"/>
<path d="M1417.34 191.17C1416.63 191.17 1416.07 190.83 1415.67 190.15C1415.27 189.47 1415.07 188.58 1415.07 187.5C1415.07 187.12 1415.1 186.63 1415.17 186.02C1415.24 185.41 1415.36 184.65 1415.54 183.76L1417.87 172.1C1418.05 171.3 1418.17 170.58 1418.24 169.94C1418.31 169.3 1418.34 168.75 1418.34 168.28C1418.34 166.26 1417.92 165.24 1417.07 165.24C1416.36 165.24 1415.39 165.8 1414.17 166.94C1412.95 168.07 1411.67 169.59 1410.34 171.5C1409.01 173.41 1407.8 175.55 1406.71 177.93C1405.62 180.31 1404.81 182.75 1404.28 185.24L1403.15 190.75C1402.62 190.94 1401.93 191.03 1401.08 191.03C1400.23 191.03 1399.48 190.93 1398.81 190.75L1402.74 168.99C1402.92 168.14 1403.02 167.48 1403.04 167.01C1403.06 166.54 1403.07 166.26 1403.07 166.16C1403.07 164.98 1402.85 164.39 1402.4 164.39C1402.22 164.39 1401.99 164.5 1401.7 164.71C1401.41 164.92 1401.09 165.19 1400.73 165.52C1400.15 166.04 1399.49 166.77 1398.73 167.71C1398.64 167.71 1398.47 167.49 1398.23 167.04C1397.99 166.59 1397.86 166.27 1397.86 166.09C1398.22 165.43 1398.86 164.63 1399.79 163.69C1400.72 162.75 1401.72 161.9 1402.79 161.15C1403.86 160.4 1404.77 160.02 1405.52 160.02C1406.23 160.02 1406.79 160.36 1407.19 161.04C1407.59 161.72 1407.79 162.61 1407.79 163.69C1407.79 164.68 1407.66 165.93 1407.39 167.43L1406.19 173.93C1406.41 173.51 1406.77 172.93 1407.26 172.2C1407.75 171.47 1408.37 170.59 1409.13 169.55C1410.11 168.14 1411.26 166.7 1412.6 165.24C1413.93 163.78 1415.24 162.54 1416.53 161.53C1417.82 160.52 1418.91 160.01 1419.8 160.01C1422.02 160.01 1423.13 161.56 1423.13 164.67C1423.13 165.71 1423.05 166.87 1422.9 168.17C1422.74 169.47 1422.51 170.87 1422.2 172.37L1420 183.25C1419.87 183.81 1419.8 184.4 1419.8 185.02C1419.8 186.2 1420.02 186.79 1420.47 186.79C1420.82 186.79 1421.26 186.58 1421.77 186.15C1422.28 185.73 1422.79 185.24 1423.3 184.7C1423.81 184.16 1424.2 183.72 1424.47 183.39L1424.87 182.9C1424.96 182.9 1425.13 183.12 1425.37 183.57C1425.61 184.02 1425.74 184.34 1425.74 184.52C1425.38 185.18 1424.71 186.04 1423.71 187.1C1422.71 188.16 1421.63 189.1 1420.48 189.93C1419.32 190.75 1418.28 191.17 1417.35 191.17H1417.34Z" fill="#1B2A58"/>
<path d="M1432.89 191.17C1432.18 191.17 1431.62 190.83 1431.22 190.15C1430.82 189.47 1430.62 188.58 1430.62 187.5C1430.62 187.12 1430.65 186.63 1430.72 186.02C1430.79 185.41 1430.91 184.65 1431.09 183.76L1434.69 164.05H1429.96C1429.83 164.05 1429.76 163.79 1429.76 163.27C1429.76 162.66 1430.03 161.93 1430.56 161.08H1435.23L1436.83 152.46C1436.87 151.99 1437.96 151.75 1440.1 151.75C1440.72 151.75 1441.12 151.77 1441.3 151.82L1439.63 161.08H1445.7C1445.92 161.08 1446.03 161.39 1446.03 162C1446.03 162.57 1445.83 163.25 1445.43 164.05H1439.1L1435.57 183.27C1435.44 183.83 1435.37 184.42 1435.37 185.04C1435.37 186.22 1435.59 186.81 1436.04 186.81C1436.79 186.81 1437.54 186.37 1438.27 185.5C1439 184.63 1439.59 183.93 1440.04 183.42L1440.44 182.93C1440.53 182.93 1440.7 183.15 1440.94 183.6C1441.18 184.05 1441.31 184.37 1441.31 184.55C1440.91 185.21 1440.22 186.07 1439.24 187.13C1438.26 188.19 1437.2 189.13 1436.04 189.96C1434.88 190.78 1433.84 191.2 1432.91 191.2L1432.89 191.17Z" fill="#1B2A58"/>
<path d="M1096.17 19.16C1098.9 86.55 1098.93 154.88 1096.17 222.28C1093.41 154.89 1093.43 86.56 1096.17 19.16Z" fill="#DCBC65"/>
</svg>
