<svg width="1498" height="251" viewBox="0 0 1498 251" fill="none" xmlns="http://www.w3.org/2000/svg">
<rect width="1497.91" height="250.43" transform="translate(0 0.429932)" fill="#1B2A58"/>
<path d="M204.625 143.85V156.99H198.845C200.575 152.79 201.945 148.39 202.905 143.85H204.625Z" fill="#1B2A58"/>
<path d="M204.625 43.46V127.62C204.625 133.19 204.035 138.62 202.905 143.86H179.665V85.64L165.095 60.59L150.525 85.64V143.86H138.115V108.63L123.545 88.32L108.975 108.63V143.86H96.565V129.33L81.995 113.28L67.425 129.33V143.86H43.155V120.8C43.155 78.09 77.775 43.46 120.485 43.46H204.645H204.625Z" fill="white"/>
<path d="M179.665 143.85H202.905C201.945 148.39 200.575 152.79 198.845 156.99H179.665V143.85Z" fill="#1B2A58"/>
<path d="M179.665 156.99H198.845C194.525 167.53 187.925 176.91 179.665 184.51V156.99Z" fill="#DCBC65"/>
<path d="M179.665 184.51V207.37H150.515V201.41C161.495 197.96 171.405 192.13 179.665 184.52V184.51Z" fill="#1B2A58"/>
<path d="M179.665 156.99V184.51C171.405 192.12 161.495 197.95 150.515 201.4V156.99H179.665Z" fill="#1B2A58"/>
<path d="M179.665 143.85H150.515V156.99H179.665V143.85Z" fill="#1B2A58"/>
<path d="M179.665 85.63V143.85H150.515V85.63L165.095 60.58L179.665 85.63Z" fill="#1B2A58"/>
<path d="M150.515 156.99V201.4C146.505 202.66 142.365 203.6 138.105 204.19V156.99H150.515Z" fill="#DCBC65"/>
<path d="M150.515 143.85H138.105V156.99H150.515V143.85Z" fill="#1B2A58"/>
<path d="M138.105 204.19V207.36H108.955V204.95H127.285C130.955 204.95 134.565 204.69 138.105 204.19Z" fill="#1B2A58"/>
<path d="M138.105 156.99V204.19C134.575 204.69 130.955 204.95 127.285 204.95H108.955V156.99H138.105Z" fill="#1B2A58"/>
<path d="M138.115 143.85H108.965V156.99H138.115V143.85Z" fill="#1B2A58"/>
<path d="M138.105 108.62V143.85H108.965V108.62L123.535 88.3101L138.105 108.62Z" fill="#1B2A58"/>
<path d="M108.965 156.99H96.555V204.95H108.965V156.99Z" fill="#DCBC65"/>
<path d="M108.965 143.85H96.555V156.99H108.965V143.85Z" fill="#1B2A58"/>
<path d="M96.555 204.95H67.405V207.36H96.555V204.95Z" fill="#1B2A58"/>
<path d="M96.555 156.99H67.405V204.95H96.555V156.99Z" fill="#1B2A58"/>
<path d="M96.555 143.85H67.405V156.99H96.555V143.85Z" fill="#1B2A58"/>
<path d="M96.555 129.33V143.85H67.405V129.33L81.985 113.27L96.555 129.33Z" fill="#1B2A58"/>
<path d="M67.405 156.99H43.135V204.95H67.405V156.99Z" fill="#DCBC65"/>
<path d="M67.405 143.85H43.135V156.99H67.405V143.85Z" fill="#1B2A58"/>
<path d="M43.145 143.85H40.575V156.99H43.145V143.85Z" fill="#1B2A58"/>
<path d="M261.31 180V191.18H248.99V189.61H251.81C254.28 189.61 256.41 188.67 258.2 186.78C259.98 184.89 260.87 182.64 260.87 180.01H261.32L261.31 180ZM260.72 78.6399L277.2 97.6899L277.35 191.19H260.87V98.3199C260.87 92.6499 260.33 86.0999 259.24 78.6399H260.72ZM260.72 78.6399L352.64 174.97L354.27 193.39L262.35 97.2199L260.72 78.6499V78.6399ZM277.35 180C277.35 182.62 278.24 184.88 280.02 186.77C281.8 188.66 283.93 189.6 286.41 189.6H289.23V191.17H276.91V179.99H277.36L277.35 180ZM325.76 80.9999H338.08V92.1799H337.78C337.68 89.4499 336.76 87.1699 335.03 85.3299C333.3 83.4999 331.14 82.5799 328.57 82.5799H325.75V81.0099L325.76 80.9999ZM353.97 80.9999V173.24C353.97 177.02 354.12 180.43 354.42 183.47C354.72 186.51 355.11 189.82 355.61 193.39H354.27L337.79 173.72V81.0099H353.98L353.97 80.9999ZM365.85 80.9999V82.5699H363.18C360.7 82.5699 358.58 83.4899 356.8 85.3199C355.02 87.1599 354.08 89.4399 353.98 92.1699H353.53V80.9899H365.85V80.9999Z" fill="white"/>
<path d="M381.74 106.65H381.44C381.34 104.24 380.5 102.24 378.92 100.67C377.34 99.1 375.4 98.31 373.13 98.31H371.2V96.74H382.78L381.74 106.66V106.65ZM381.74 181.26L382.78 191.18H371.2V189.61H373.13C375.41 189.61 377.34 188.8 378.92 187.17C380.5 185.54 381.34 183.58 381.44 181.27H381.74V181.26ZM398.81 96.74V191.18H381.44V96.74H398.81ZM436.38 96.74V102.56H398.51V96.74H436.38ZM429.55 141.28V147.1H398.52V141.28H429.55ZM435.34 185.35L437.57 191.17H398.52V185.35H435.35H435.34ZM444.4 164.42L437.87 191.18H413.22L417.97 185.36C422.52 185.36 426.41 184.49 429.63 182.76C432.85 181.03 435.54 178.59 437.72 175.44C439.9 172.29 441.68 168.62 443.07 164.42H444.41H444.4ZM429.55 129.48V141.6H418.41V141.29C421.48 141.29 423.85 140.29 425.54 138.3C427.22 136.31 428.06 133.84 428.06 130.9V129.48H429.54H429.55ZM429.55 146.79V159.07H428.07V157.65C428.07 154.71 427.23 152.25 425.55 150.25C423.87 148.26 421.49 147.21 418.42 147.1V146.79H429.56H429.55ZM436.38 94.22V98.31L420.34 96.74C423.21 96.74 426.28 96.45 429.55 95.87C432.82 95.29 435.09 94.74 436.38 94.22ZM436.38 102.09V116.89H434.75V115.16C434.75 111.38 433.76 108.34 431.78 106.03C429.8 103.72 426.98 102.57 423.32 102.57V102.1H436.39L436.38 102.09Z" fill="white"/>
<path d="M460.14 106.65H459.69C459.69 104.24 458.8 102.24 457.02 100.67C455.24 99.1 453.11 98.31 450.63 98.31H448.7V96.74H460.13V106.66L460.14 106.65ZM460.14 181.26V191.18H448.71V189.61H450.64C453.11 189.61 455.24 188.8 457.03 187.17C458.81 185.54 459.7 183.58 459.7 181.27H460.15L460.14 181.26ZM477.07 96.74V191.18H459.7V96.74H477.07ZM476.62 106.65V96.73H488.05L487.9 98.3H486.27C483.69 98.3 481.54 99.09 479.81 100.66C478.08 102.23 477.16 104.23 477.06 106.64H476.61L476.62 106.65ZM476.62 181.26H477.07C477.17 183.57 478.08 185.54 479.82 187.16C481.55 188.79 483.7 189.6 486.28 189.6H488.06V191.17H476.63V181.25L476.62 181.26Z" fill="white"/>
<path d="M543.44 94.6899C547.99 94.6899 552.47 94.9999 556.88 95.6299C561.28 96.2599 565.42 97.1499 569.28 98.3099C573.14 99.4699 576.51 100.93 579.38 102.72L580.57 126.64H579.38C577.8 120.14 575.44 114.97 572.33 111.14C569.21 107.31 565.47 104.56 561.12 102.88C556.76 101.2 551.86 100.36 546.42 100.36C539.29 100.36 533.2 102.12 528.16 105.63C523.11 109.15 519.25 114.18 516.58 120.74C513.91 127.3 512.57 135.2 512.57 144.43C512.57 153.66 513.83 160.91 516.36 167.41C518.88 173.92 522.5 178.9 527.2 182.36C531.9 185.82 537.57 187.55 544.2 187.55C547.66 187.55 550.98 187.03 554.15 185.98C557.32 184.93 560.19 183.36 562.76 181.26C565.33 179.16 567.46 176.54 569.14 173.39L569.29 153.72C569.29 151.73 568.72 150.21 567.58 149.16C566.44 148.11 564.78 147.59 562.61 147.59H560.53V146.17H595.13V147.59H593.2C588.75 147.59 586.57 149.69 586.67 153.89L586.52 174.19C584.44 177.13 581.3 180.07 577.09 183C572.88 185.94 567.88 188.38 562.09 190.32C556.3 192.26 549.89 193.23 542.86 193.23C532.96 193.23 524.35 191.24 517.02 187.25C509.69 183.26 504 177.6 499.94 170.25C495.88 162.91 493.85 154.09 493.85 143.81C493.85 133.53 495.88 124.87 499.94 117.52C504 110.18 509.74 104.53 517.16 100.6C524.58 96.6599 533.35 94.6999 543.44 94.6999V94.6899Z" fill="white"/>
<path d="M606.55 106.65H606.1C606.1 104.24 605.31 102.24 603.72 100.67C602.14 99.1 600.2 98.31 597.93 98.31H596.15V96.74H606.54V106.66L606.55 106.65ZM606.55 181.26V191.18H596.16V189.61H597.94C600.22 189.61 602.15 188.8 603.73 187.17C605.31 185.54 606.11 183.58 606.11 181.27H606.56L606.55 181.26ZM623.63 96.74V191.18H606.11V96.74H623.63ZM669.22 141.44V147.11H622.15V141.44H669.22ZM623.18 106.65V96.73H633.57V98.3H631.94C629.66 98.3 627.71 99.09 626.07 100.66C624.44 102.23 623.62 104.23 623.62 106.64H623.17L623.18 106.65ZM623.18 181.26H623.63C623.63 183.57 624.45 185.54 626.08 187.16C627.71 188.79 629.67 189.6 631.95 189.6H633.58V191.17H623.19V181.25L623.18 181.26ZM668.32 106.65H667.87C667.77 104.24 666.95 102.24 665.42 100.67C663.88 99.1 661.93 98.31 659.55 98.31H657.92V96.74H668.31V106.66L668.32 106.65ZM668.32 181.26V191.18H657.93V189.61H659.56C661.94 189.61 663.89 188.8 665.43 187.17C666.96 185.54 667.78 183.58 667.88 181.27H668.33L668.32 181.26ZM685.25 96.74V191.18H667.88V96.74H685.25ZM684.81 181.26H685.26C685.36 183.57 686.2 185.54 687.78 187.16C689.36 188.79 691.29 189.6 693.57 189.6H695.35V191.17H684.81V181.25V181.26ZM684.96 106.65V96.73H695.35V98.3H693.57C691.29 98.3 689.36 99.09 687.78 100.66C686.2 102.23 685.4 104.23 685.4 106.64H684.95L684.96 106.65Z" fill="white"/>
<path d="M713.02 106.65H712.57C712.57 104.24 711.78 102.24 710.19 100.67C708.61 99.1 706.63 98.31 704.25 98.31H702.47V96.74H713.01V106.66L713.02 106.65ZM713.02 181.26V191.18H702.48V189.61H704.26C706.64 189.61 708.61 188.8 710.2 187.17C711.78 185.54 712.58 183.58 712.58 181.27H713.03L713.02 181.26ZM729.8 96.74V191.18H712.57V96.74H729.8ZM739.15 96.74C742.61 96.74 746.28 97.03 750.14 97.61C754 98.19 757.56 99.29 760.83 100.92C764.1 102.55 766.74 104.93 768.77 108.08C770.8 111.23 771.81 115.32 771.81 120.36C771.81 123.93 771.02 127.13 769.43 129.96C767.85 132.79 765.81 135.02 763.34 136.65C760.86 138.28 758.24 139.35 755.47 139.88C759.93 140.19 763.96 141.45 767.57 143.66C771.18 145.86 774.05 148.72 776.18 152.24C778.31 155.76 779.37 159.82 779.37 164.44C779.37 169.48 778.35 173.7 776.33 177.11C774.3 180.52 771.6 183.25 768.24 185.3C764.87 187.35 761.04 188.84 756.73 189.79C752.42 190.74 747.99 191.21 743.44 191.21H728.44C728.54 189.32 728.59 187.43 728.59 185.54H739.28C743.04 185.54 746.48 184.81 749.6 183.34C752.72 181.87 755.19 179.51 757.02 176.26C758.85 173.01 759.77 168.76 759.77 163.51C759.77 159.31 759.08 155.8 757.69 152.96C756.3 150.13 754.42 147.84 752.05 146.11C749.68 144.38 746.95 143.15 743.88 142.41C740.81 141.68 737.54 141.31 734.08 141.31V139.89C736.55 139.89 738.95 139.6 741.28 139.02C743.6 138.44 745.68 137.45 747.52 136.03C749.35 134.61 750.81 132.7 751.9 130.28C752.99 127.87 753.53 124.88 753.53 121.31C753.53 114.38 751.92 109.51 748.7 106.67C745.48 103.84 741.2 102.42 735.86 102.42H718.19C718.19 102.32 718.09 101.79 717.89 100.85C717.69 99.91 717.39 98.54 717 96.76H739.12L739.15 96.74Z" fill="white"/>
<path d="M839.38 94.6899C846.9 94.6899 853.83 95.8499 860.17 98.1499C866.5 100.46 872 103.76 876.65 108.07C881.3 112.37 884.89 117.54 887.42 123.57C889.94 129.61 891.21 136.4 891.21 143.95C891.21 151.5 889.95 158.3 887.42 164.33C884.9 170.37 881.31 175.53 876.65 179.83C872 184.13 866.5 187.44 860.17 189.75C853.83 192.06 846.9 193.21 839.38 193.21C831.86 193.21 824.93 192.05 818.59 189.75C812.25 187.44 806.78 184.14 802.18 179.83C797.58 175.53 794.01 170.36 791.49 164.33C788.97 158.3 787.7 151.5 787.7 143.95C787.7 136.4 788.96 129.6 791.49 123.57C794.01 117.54 797.58 112.37 802.18 108.07C806.78 103.77 812.25 100.46 818.59 98.1499C824.92 95.8399 831.85 94.6899 839.38 94.6899ZM839.38 187.56C845.81 187.56 851.5 185.78 856.46 182.21C861.41 178.64 865.29 173.58 868.12 167.02C870.94 160.46 872.35 152.78 872.35 143.96C872.35 135.14 870.94 127.33 868.12 120.82C865.3 114.32 861.41 109.28 856.46 105.71C851.51 102.14 845.82 100.36 839.38 100.36C832.94 100.36 827.25 102.15 822.3 105.71C817.35 109.28 813.49 114.32 810.72 120.82C807.95 127.33 806.56 135.04 806.56 143.96C806.56 152.88 807.95 160.46 810.72 167.02C813.49 173.58 817.35 178.64 822.3 182.21C827.25 185.78 832.94 187.56 839.38 187.56Z" fill="white"/>
<path d="M907.69 106.65H907.39C907.29 104.24 906.47 102.24 904.94 100.67C903.4 99.1 901.55 98.31 899.37 98.31H897.44V96.74H908.73L907.69 106.66V106.65ZM907.69 181.26L908.73 191.18H897.44V189.61H899.22C901.5 189.61 903.4 188.8 904.94 187.17C906.47 185.54 907.29 183.58 907.39 181.27H907.69V181.26ZM924.76 96.74V191.18H907.24V96.74H924.76ZM940.21 96.74C944.56 96.74 948.65 97.21 952.46 98.16C956.27 99.1 959.64 100.6 962.56 102.65C965.48 104.7 967.76 107.35 969.39 110.6C971.02 113.85 971.84 117.79 971.84 122.41C971.84 126.29 971.05 130.1 969.46 133.82C967.88 137.55 965.5 140.69 962.33 143.26C959.16 145.83 955.2 147.43 950.45 148.06C952.92 148.9 955.42 150.68 957.95 153.41C960.47 156.14 962.43 158.71 963.82 161.12C964.12 161.65 964.83 162.83 965.97 164.66C967.11 166.5 968.52 168.65 970.2 171.11C971.88 173.58 973.62 176.02 975.4 178.43C977.38 181.16 979.16 183.34 980.75 184.96C982.33 186.59 983.99 187.77 985.72 188.5C987.45 189.24 989.41 189.6 991.59 189.6V191.17H981.79C976.44 191.17 971.94 190.65 968.28 189.6C964.62 188.55 961.52 186.92 959 184.72C956.48 182.52 954.17 179.79 952.1 176.54C951.41 175.39 950.49 173.81 949.35 171.82C948.21 169.83 947.05 167.76 945.86 165.6C944.67 163.45 943.58 161.4 942.59 159.46C941.6 157.52 940.96 156.02 940.66 154.97C939.17 151.82 937.44 149.41 935.46 147.73C933.48 146.05 931.55 145.16 929.67 145.05V143.63C929.77 143.63 930.31 143.66 931.3 143.71C932.29 143.76 933.53 143.74 935.01 143.63C937.29 143.53 939.59 143.16 941.91 142.53C944.24 141.9 946.34 140.54 948.22 138.44C950.1 136.34 951.54 133.09 952.53 128.68C952.83 127.84 953.05 126.79 953.2 125.53C953.35 124.27 953.37 122.85 953.27 121.28C953.17 117.71 952.58 114.75 951.49 112.39C950.4 110.03 949.01 108.17 947.33 106.8C945.65 105.44 943.82 104.44 941.84 103.81C939.86 103.18 937.98 102.81 936.2 102.71C933.33 102.61 930.8 102.58 928.63 102.63C926.45 102.68 925.11 102.71 924.62 102.71C924.52 102.61 924.37 102.08 924.17 101.14C923.97 100.2 923.67 98.73 923.28 96.73H940.21V96.74ZM924.47 181.26H924.77C924.87 183.68 925.76 185.67 927.44 187.24C929.12 188.81 931 189.6 933.08 189.6H934.71L934.86 191.17H923.43L924.47 181.25V181.26Z" fill="white"/>
<path d="M1018.16 94.6899C1020.44 94.6899 1022.84 94.7699 1025.36 94.9299C1027.88 95.0899 1030.33 95.3199 1032.71 95.6399C1035.09 95.9499 1037.19 96.2999 1039.02 96.6599C1040.85 97.0299 1042.11 97.3699 1042.81 97.6799L1041.62 115.62H1040.28C1040.28 111 1038.74 107.33 1035.68 104.6C1032.61 101.87 1028.11 100.51 1022.17 100.51C1017.42 100.51 1013.46 101.74 1010.29 104.21C1007.12 106.68 1005.49 109.8 1005.39 113.58C1005.39 115.37 1005.71 116.96 1006.36 118.38C1007 119.8 1007.97 121.13 1009.26 122.39C1010.55 123.65 1012.08 124.86 1013.86 126.01L1039.4 144.43C1042.76 146.53 1045.39 149.44 1047.27 153.17C1049.15 156.9 1050.04 161.12 1049.94 165.84C1049.74 171.3 1048.28 176.1 1045.56 180.24C1042.84 184.39 1039.1 187.59 1034.35 189.84C1029.6 192.1 1024.1 193.22 1017.87 193.22C1014.11 193.22 1010.45 192.91 1006.88 192.28C1003.32 191.65 1000.2 190.73 997.53 189.53C994.86 188.32 992.68 186.88 991 185.2C990.41 183.31 990.16 181 990.26 178.27C990.36 175.54 990.73 172.76 991.37 169.93C992.01 167.1 992.78 164.68 993.67 162.69H995.15C994.85 167.41 995.62 171.66 997.45 175.44C999.28 179.22 1002 182.18 1005.62 184.33C1009.23 186.48 1013.51 187.56 1018.46 187.56C1024.3 187.46 1028.75 185.96 1031.82 183.07C1034.89 180.19 1036.42 176.59 1036.42 172.29C1036.42 169.56 1035.7 167.1 1034.27 164.89C1032.83 162.69 1030.48 160.59 1027.22 158.59L1003.31 140.96C999.05 138.34 996.03 135.01 994.25 130.96C992.47 126.92 991.77 122.65 992.17 118.13C992.47 113.41 993.75 109.29 996.03 105.77C998.31 102.26 1001.35 99.5299 1005.16 97.5899C1008.97 95.6499 1013.3 94.6799 1018.15 94.6799L1018.16 94.6899ZM1042.96 96.1099L1042.81 98.7899H1028.7V96.1099H1042.96Z" fill="white"/>
<path d="M1151.7 126.34C1151.48 126.34 1151.3 126.22 1151.17 125.99L1141.7 89.3899C1141.34 87.9799 1140.97 86.6999 1140.57 85.5699C1140.17 84.4399 1139.77 83.4499 1139.37 82.5999C1139.15 82.1299 1138.67 81.7199 1137.94 81.3599C1137.21 81.0099 1136.62 80.8299 1136.17 80.8299C1136.08 80.8299 1136.04 80.7099 1136.04 80.4799C1136.04 79.6299 1136.2 79.1099 1136.51 78.9299L1139.51 79.1399C1140.13 79.1899 1140.74 79.2399 1141.34 79.2799C1141.94 79.3299 1142.51 79.3499 1143.04 79.3499C1144.37 79.3499 1145.69 79.2899 1147.01 79.1699C1148.32 79.0499 1149.4 78.9699 1150.24 78.9199V79.1299C1150.24 80.2599 1150.08 80.8299 1149.77 80.8299C1148.7 80.8299 1147.86 81.0899 1147.24 81.6099C1146.62 82.1299 1146.31 82.7399 1146.31 83.4499C1146.31 83.9199 1146.47 84.7899 1146.78 86.0599L1155.25 117.5L1163.32 104.57L1158.39 85.8499C1158.21 85.1899 1158.01 84.5899 1157.79 84.0499C1157.57 83.5099 1157.35 83.0299 1157.12 82.5999C1156.85 82.1299 1156.35 81.7199 1155.62 81.3599C1154.89 81.0099 1154.3 80.8299 1153.85 80.8299C1153.76 80.8299 1153.72 80.7099 1153.72 80.4799C1153.72 79.7299 1153.9 79.2099 1154.25 78.9299C1154.65 78.9299 1155.26 78.9699 1156.08 79.0399C1156.9 79.1099 1157.8 79.1799 1158.78 79.2499C1159.76 79.3199 1160.6 79.3599 1161.31 79.3599C1162.02 79.3599 1162.84 79.3199 1163.78 79.2499C1164.71 79.1799 1165.58 79.1099 1166.38 79.0399C1167.18 78.9699 1167.71 78.9299 1167.98 78.9299V79.1399C1167.98 79.4699 1167.92 79.8399 1167.81 80.2399C1167.7 80.6399 1167.58 80.8399 1167.44 80.8399C1166.37 80.8399 1165.54 81.0999 1164.94 81.6199C1164.34 82.1399 1164.04 82.7499 1164.04 83.4599C1164.04 84.0699 1164.17 84.9399 1164.44 86.0699L1167.44 97.4499L1173.11 87.6999C1174.22 85.8199 1174.78 84.4299 1174.78 83.5299C1174.78 82.6299 1174.39 81.9599 1173.61 81.5199C1172.83 81.0699 1172.2 80.8499 1171.71 80.8499C1171.62 80.8499 1171.58 80.7299 1171.58 80.4999C1171.58 79.6499 1171.74 79.1299 1172.05 78.9499C1175.92 79.2299 1178.03 79.3699 1178.38 79.3699C1179.67 79.3699 1181 79.2999 1182.38 79.1599C1183.8 79.0199 1184.69 78.9499 1185.05 78.9499C1185.05 80.2199 1184.89 80.8599 1184.58 80.8599C1184.14 80.8599 1183.57 80.9899 1182.88 81.2499C1182.19 81.5099 1181.56 81.8299 1180.98 82.1999C1180.4 82.5799 1179.98 82.9099 1179.71 83.1899C1178.87 84.1299 1177.31 86.4899 1175.04 90.2599L1168.37 101.14L1172.9 117.96L1189.1 87.7199C1190.21 85.6999 1190.77 84.3099 1190.77 83.5499C1190.77 82.6599 1190.38 81.9799 1189.6 81.5399C1188.82 81.0899 1188.19 80.8699 1187.7 80.8699C1187.61 80.8699 1187.57 80.7499 1187.57 80.5199C1187.57 79.6699 1187.73 79.1499 1188.04 78.9699C1191.91 79.2499 1194.02 79.3899 1194.37 79.3899C1195.66 79.3899 1196.99 79.3199 1198.37 79.1799C1199.79 79.0399 1200.68 78.9699 1201.04 78.9699C1201.04 80.2399 1200.88 80.8799 1200.57 80.8799C1200.13 80.8799 1199.56 81.0099 1198.87 81.2699C1198.18 81.5299 1197.55 81.8499 1196.97 82.2199C1196.39 82.5999 1195.97 82.9299 1195.7 83.2099C1194.99 84.1099 1194.23 85.1299 1193.43 86.2799C1192.63 87.4299 1191.83 88.7599 1191.03 90.2699L1172.3 124.11C1171.5 125.62 1170.54 126.37 1169.43 126.37C1169.16 126.37 1168.99 126.25 1168.9 126.02L1164.23 108.14L1154.5 124.11C1153.57 125.62 1152.63 126.37 1151.7 126.37V126.34Z" fill="white"/>
<path d="M1194.85 125.84C1192.54 125.84 1190.77 124.89 1189.55 122.98C1188.33 121.07 1187.72 118.45 1187.72 115.1C1187.72 112.84 1188.16 110.52 1189.05 108.14C1189.94 105.76 1191.12 103.55 1192.58 101.5C1194.05 99.4499 1195.65 97.7999 1197.38 96.5499C1199.11 95.2999 1200.82 94.6799 1202.51 94.6799C1204.55 94.6799 1206.03 95.2299 1206.94 96.3399C1207.85 97.4499 1208.31 98.6599 1208.31 99.9799C1208.31 102.01 1207.31 104.06 1205.31 106.13C1203.98 107.45 1202.54 108.59 1201.01 109.56C1199.48 110.53 1198 111.26 1196.58 111.75C1195.16 112.24 1193.96 112.49 1192.98 112.49C1192.8 112.49 1192.71 113.31 1192.71 114.96C1192.71 117.08 1193.1 118.69 1193.88 119.8C1194.66 120.91 1195.71 121.46 1197.05 121.46C1198.25 121.46 1199.33 121.08 1200.28 120.33C1201.24 119.58 1202.16 118.73 1203.05 117.79L1203.25 117.58C1203.34 117.58 1203.5 117.8 1203.75 118.25C1203.99 118.7 1204.12 119.02 1204.12 119.2C1203.72 119.95 1203.01 120.85 1201.99 121.89C1200.97 122.93 1199.83 123.85 1198.59 124.65C1197.35 125.45 1196.1 125.85 1194.86 125.85L1194.85 125.84ZM1193.45 110.01C1194.25 110.01 1195.22 109.7 1196.35 109.09C1197.48 108.48 1198.59 107.67 1199.68 106.65C1200.77 105.64 1201.68 104.52 1202.41 103.29C1203.14 102.07 1203.51 100.86 1203.51 99.6899C1203.51 98.2799 1202.95 97.5699 1201.84 97.5699C1200.73 97.5699 1199.73 98.0299 1198.71 98.9499C1197.69 99.8699 1196.77 101 1195.94 102.34C1195.12 103.68 1194.45 105.04 1193.94 106.4C1193.43 107.77 1193.17 108.87 1193.17 109.72C1193.17 109.91 1193.26 110 1193.44 110L1193.45 110.01Z" fill="white"/>
<path d="M1226.4 125.84C1225.69 125.84 1225.13 125.5 1224.73 124.82C1224.33 124.14 1224.13 123.25 1224.13 122.17C1224.13 121.79 1224.16 121.29 1224.23 120.65C1224.3 120.01 1224.42 119.27 1224.6 118.42L1224.93 116.58C1224.35 117.71 1223.55 118.99 1222.53 120.43C1221.51 121.87 1220.39 123.11 1219.16 124.17C1217.94 125.23 1216.73 125.76 1215.53 125.76C1213.57 125.76 1212.03 124.83 1210.9 122.97C1209.77 121.11 1209.2 118.86 1209.2 116.22C1209.2 113.58 1209.76 110.99 1210.87 108.45C1211.98 105.91 1213.46 103.6 1215.3 101.53C1217.14 99.4599 1219.2 97.7999 1221.47 96.5499C1223.74 95.2999 1226 94.6799 1228.27 94.6799C1230.05 94.6799 1231.67 94.9899 1233.14 95.5999L1229.27 116.87C1229.14 117.67 1229.04 118.27 1228.97 118.67C1228.9 119.07 1228.87 119.48 1228.87 119.91C1228.87 120.95 1229.09 121.46 1229.54 121.46C1229.89 121.46 1230.33 121.25 1230.84 120.82C1231.35 120.4 1231.86 119.91 1232.37 119.37C1232.88 118.83 1233.27 118.39 1233.54 118.06L1233.94 117.57C1234.03 117.57 1234.19 117.79 1234.44 118.24C1234.68 118.69 1234.81 119.01 1234.81 119.19C1234.45 119.85 1233.79 120.71 1232.81 121.77C1231.83 122.83 1230.77 123.77 1229.61 124.6C1228.45 125.42 1227.39 125.84 1226.41 125.84H1226.4ZM1217.53 121.67C1218.37 121.67 1219.26 121.2 1220.2 120.26C1221.13 119.32 1222.04 118.07 1222.93 116.52C1223.82 114.97 1224.62 113.27 1225.33 111.43C1226.04 109.59 1226.55 107.8 1226.86 106.06L1228.19 98.8499C1227.66 98.2399 1226.75 97.9299 1225.46 97.9299C1224.17 97.9299 1222.79 98.4199 1221.46 99.4099C1220.13 100.4 1218.9 101.71 1217.79 103.33C1216.68 104.95 1215.79 106.77 1215.12 108.77C1214.45 110.77 1214.12 112.76 1214.12 114.74C1214.12 119.36 1215.25 121.66 1217.52 121.66L1217.53 121.67Z" fill="white"/>
<path d="M1241.21 125.84C1240.54 125.84 1240 125.5 1239.58 124.82C1239.16 124.14 1238.95 123.25 1238.95 122.17C1238.95 121.79 1238.98 121.29 1239.05 120.65C1239.12 120.01 1239.24 119.27 1239.42 118.42L1245.69 84.15C1245.82 83.44 1245.89 82.78 1245.89 82.17C1245.89 81.28 1244.53 80.83 1241.82 80.83C1241.69 80.83 1241.62 80.69 1241.62 80.41C1241.62 79.84 1241.8 79.37 1242.15 79C1243.66 78.86 1245.13 78.62 1246.55 78.29C1247.97 77.96 1249.35 77.54 1250.68 77.02C1250.95 77.16 1251.08 77.61 1251.08 78.36C1251.08 78.64 1251 79.22 1250.85 80.09C1250.69 80.96 1250.48 82.15 1250.22 83.66L1243.89 117.93C1243.76 118.49 1243.69 119.08 1243.69 119.7C1243.69 120.88 1243.91 121.47 1244.36 121.47C1244.63 121.47 1244.95 121.34 1245.33 121.08C1245.71 120.82 1246.1 120.5 1246.5 120.13C1247.17 119.52 1247.92 118.67 1248.77 117.59C1248.9 117.59 1249.08 117.81 1249.3 118.26C1249.52 118.71 1249.63 119.03 1249.63 119.21C1249.27 119.87 1248.6 120.73 1247.6 121.79C1246.6 122.85 1245.52 123.79 1244.37 124.62C1243.21 125.44 1242.17 125.86 1241.24 125.86L1241.21 125.84Z" fill="white"/>
<path d="M1256.9 125.84C1256.19 125.84 1255.63 125.5 1255.23 124.82C1254.83 124.14 1254.63 123.25 1254.63 122.17C1254.63 121.79 1254.66 121.3 1254.73 120.69C1254.8 120.08 1254.92 119.32 1255.1 118.43L1258.7 98.7199H1253.97C1253.84 98.7199 1253.77 98.4599 1253.77 97.9399C1253.77 97.3299 1254.04 96.5999 1254.57 95.7499H1259.24L1260.84 87.1299C1260.88 86.6599 1261.97 86.4199 1264.11 86.4199C1264.73 86.4199 1265.13 86.4399 1265.31 86.4899L1263.64 95.7499H1269.71C1269.93 95.7499 1270.04 96.0599 1270.04 96.6699C1270.04 97.2399 1269.84 97.9199 1269.44 98.7199H1263.11L1259.58 117.94C1259.45 118.5 1259.38 119.09 1259.38 119.71C1259.38 120.89 1259.6 121.48 1260.05 121.48C1260.8 121.48 1261.55 121.04 1262.28 120.17C1263.01 119.3 1263.6 118.6 1264.05 118.09L1264.45 117.6C1264.54 117.6 1264.71 117.82 1264.95 118.27C1265.19 118.72 1265.32 119.04 1265.32 119.22C1264.92 119.88 1264.23 120.74 1263.25 121.8C1262.27 122.86 1261.21 123.8 1260.05 124.63C1258.89 125.45 1257.85 125.87 1256.92 125.87L1256.9 125.84Z" fill="white"/>
<path d="M1290.38 125.84C1289.67 125.84 1289.11 125.5 1288.71 124.82C1288.31 124.14 1288.11 123.25 1288.11 122.17C1288.11 121.79 1288.14 121.3 1288.21 120.69C1288.28 120.08 1288.4 119.32 1288.58 118.43L1290.91 106.77C1291.09 105.97 1291.21 105.25 1291.28 104.61C1291.35 103.97 1291.38 103.42 1291.38 102.95C1291.38 100.93 1290.96 99.91 1290.11 99.91C1289.4 99.91 1288.42 100.5 1287.18 101.68C1285.94 102.86 1284.65 104.41 1283.31 106.34C1281.98 108.27 1280.77 110.41 1279.68 112.77C1278.59 115.13 1277.8 117.5 1277.31 119.91L1276.18 125.42C1275.65 125.61 1274.96 125.7 1274.11 125.7C1273.26 125.7 1272.51 125.6 1271.84 125.42L1279.04 85.92C1279.44 83.85 1279.64 82.6 1279.64 82.18C1279.64 81.29 1278.28 80.84 1275.57 80.84C1275.44 80.84 1275.37 80.7 1275.37 80.42C1275.37 79.85 1275.55 79.38 1275.9 79.01C1278.92 78.73 1281.72 78.07 1284.3 77.03C1284.57 77.17 1284.7 77.62 1284.7 78.37C1284.7 78.56 1284.63 79.09 1284.5 79.96C1284.37 80.83 1284.14 82.07 1283.83 83.67L1279.23 108.61C1279.45 108.19 1279.81 107.61 1280.3 106.88C1280.79 106.15 1281.41 105.27 1282.17 104.23C1283.15 102.82 1284.3 101.38 1285.64 99.92C1286.97 98.46 1288.28 97.22 1289.57 96.21C1290.86 95.2 1291.95 94.69 1292.84 94.69C1295.06 94.69 1296.17 96.24 1296.17 99.35C1296.17 100.39 1296.09 101.55 1295.94 102.85C1295.78 104.15 1295.55 105.55 1295.24 107.05L1293.04 117.93C1292.91 118.49 1292.84 119.08 1292.84 119.7C1292.84 120.88 1293.06 121.47 1293.51 121.47C1294.26 121.47 1295.01 121.03 1295.74 120.16C1296.47 119.29 1297.06 118.59 1297.51 118.08L1297.91 117.59C1298 117.59 1298.16 117.81 1298.41 118.26C1298.65 118.71 1298.78 119.03 1298.78 119.21C1298.42 119.87 1297.75 120.73 1296.75 121.79C1295.75 122.85 1294.67 123.79 1293.52 124.62C1292.36 125.44 1291.32 125.86 1290.39 125.86L1290.38 125.84Z" fill="white"/>
<path d="M1134.24 191.39C1134.15 191.3 1134.11 191.06 1134.11 190.68C1134.11 189.88 1134.27 189.48 1134.58 189.48C1134.94 189.48 1135.5 189.4 1136.28 189.23C1137.06 189.07 1137.8 188.84 1138.51 188.56C1139.22 188.28 1139.62 188.02 1139.71 187.78C1140.55 186.08 1141.29 183.99 1141.91 181.49L1149.18 153.86C1149.49 152.68 1149.71 151.75 1149.85 151.07C1149.98 150.39 1150.05 149.53 1150.05 148.49C1150.05 148.11 1149.74 147.78 1149.12 147.5C1148.5 147.22 1147.83 146.99 1147.12 146.83C1146.41 146.67 1145.88 146.58 1145.52 146.58C1145.43 146.58 1145.39 146.42 1145.39 146.09C1145.39 145.34 1145.52 144.87 1145.79 144.68L1152.06 144.82C1153.35 144.87 1154.51 144.87 1155.56 144.82C1156.6 144.77 1157.55 144.73 1158.39 144.68C1158.61 146.61 1159.13 150.5 1159.96 156.34C1160.78 162.18 1161.95 169.95 1163.46 179.66C1163.46 179.71 1163.48 179.73 1163.53 179.73C1163.66 179.73 1163.73 179.68 1163.73 179.59L1175.59 154.22L1179.79 144.68C1180.99 144.82 1182.75 144.89 1185.06 144.89C1185.81 144.89 1186.68 144.87 1187.66 144.82C1188.64 144.77 1189.7 144.7 1190.86 144.61C1190.95 144.85 1190.95 145.25 1190.86 145.81C1190.77 146.38 1190.66 146.66 1190.53 146.66C1189.95 146.66 1189.34 146.83 1188.7 147.15C1188.06 147.48 1187.58 147.88 1187.27 148.35C1186.69 149.1 1186.31 150.11 1186.14 151.35C1185.96 152.6 1185.83 153.69 1185.74 154.64L1183.14 181.63C1182.87 184.08 1182.74 185.94 1182.74 187.21C1182.74 188.2 1183.09 188.81 1183.81 189.05C1184.56 189.33 1185.5 189.47 1186.61 189.47C1186.7 189.47 1186.74 189.68 1186.74 190.11C1186.74 190.68 1186.61 191.1 1186.34 191.38C1184.3 191.29 1182.66 191.19 1181.44 191.1C1180.22 191.01 1179.43 190.98 1179.07 191.03L1172.07 191.38C1171.98 191.1 1171.94 190.98 1171.94 191.03C1171.94 190.75 1172 190.42 1172.11 190.04C1172.22 189.66 1172.32 189.47 1172.41 189.47C1172.81 189.47 1173.32 189.42 1173.94 189.33C1174.56 189.24 1175.14 189.08 1175.67 188.87C1176.2 188.66 1176.51 188.43 1176.6 188.2C1177.13 186.88 1177.45 185.85 1177.57 185.09C1177.68 184.34 1177.8 183.25 1177.94 181.84L1180.61 154.28C1180.74 152.87 1180.81 151.95 1180.81 151.52C1180.81 151.24 1180.68 151.1 1180.41 151.1C1180.32 151.1 1180.25 151.2 1180.21 151.38L1162.81 188.97C1162.63 189.39 1162.22 189.89 1161.58 190.45C1160.94 191.02 1160.35 191.3 1159.81 191.3C1159.72 191.3 1159.54 191.25 1159.28 191.16L1153.61 151.1L1153.48 150.96C1153.35 150.96 1153.28 151.01 1153.28 151.1L1145.48 181.55C1145.08 183.15 1144.77 184.44 1144.55 185.4C1144.33 186.37 1144.22 187.04 1144.22 187.41C1144.22 187.65 1144.49 187.93 1145.02 188.26C1145.55 188.59 1146.19 188.87 1146.92 189.11C1147.65 189.35 1148.26 189.46 1148.75 189.46C1148.84 189.46 1148.88 189.6 1148.88 189.88C1148.88 190.3 1148.77 190.8 1148.55 191.36C1146.51 191.27 1144.89 191.18 1143.72 191.11C1142.54 191.04 1141.84 191 1141.62 191L1134.29 191.35L1134.24 191.39Z" fill="white"/>
<path d="M1209.11 191.6C1208.4 191.6 1207.84 191.26 1207.44 190.58C1207.04 189.9 1206.84 189.01 1206.84 187.93C1206.84 187.55 1206.87 187.05 1206.94 186.41C1207.01 185.77 1207.13 185.03 1207.31 184.18L1207.64 182.34C1207.06 183.47 1206.26 184.75 1205.24 186.19C1204.22 187.63 1203.1 188.87 1201.87 189.93C1200.65 190.99 1199.44 191.52 1198.24 191.52C1196.28 191.52 1194.74 190.59 1193.61 188.73C1192.48 186.87 1191.91 184.62 1191.91 181.98C1191.91 179.34 1192.47 176.75 1193.58 174.21C1194.69 171.67 1196.17 169.36 1198.01 167.29C1199.85 165.22 1201.91 163.56 1204.18 162.31C1206.45 161.06 1208.71 160.44 1210.98 160.44C1212.76 160.44 1214.38 160.75 1215.85 161.36L1211.98 182.63C1211.85 183.43 1211.75 184.03 1211.68 184.43C1211.61 184.83 1211.58 185.24 1211.58 185.67C1211.58 186.71 1211.8 187.22 1212.25 187.22C1212.6 187.22 1213.04 187.01 1213.55 186.58C1214.06 186.16 1214.57 185.67 1215.08 185.13C1215.59 184.59 1215.98 184.15 1216.25 183.82L1216.65 183.33C1216.74 183.33 1216.9 183.55 1217.15 184C1217.39 184.45 1217.52 184.77 1217.52 184.95C1217.16 185.61 1216.5 186.47 1215.52 187.53C1214.54 188.59 1213.48 189.53 1212.32 190.36C1211.16 191.18 1210.1 191.6 1209.12 191.6H1209.11ZM1200.25 187.43C1201.09 187.43 1201.98 186.96 1202.92 186.02C1203.85 185.08 1204.76 183.83 1205.65 182.28C1206.54 180.73 1207.34 179.03 1208.05 177.19C1208.76 175.35 1209.27 173.56 1209.58 171.82L1210.91 164.61C1210.38 164 1209.47 163.69 1208.18 163.69C1206.89 163.69 1205.51 164.18 1204.18 165.17C1202.85 166.16 1201.62 167.47 1200.51 169.09C1199.4 170.71 1198.51 172.53 1197.84 174.53C1197.17 176.53 1196.84 178.52 1196.84 180.5C1196.84 185.12 1197.97 187.42 1200.24 187.42L1200.25 187.43Z" fill="white"/>
<path d="M1240.33 191.6C1239.62 191.6 1239.06 191.26 1238.66 190.58C1238.26 189.9 1238.06 189.01 1238.06 187.93C1238.06 187.55 1238.09 187.06 1238.16 186.45C1238.23 185.84 1238.35 185.08 1238.53 184.19L1240.86 172.53C1241.04 171.73 1241.16 171.01 1241.23 170.37C1241.3 169.73 1241.33 169.18 1241.33 168.71C1241.33 166.69 1240.91 165.67 1240.06 165.67C1239.35 165.67 1238.38 166.23 1237.16 167.37C1235.94 168.5 1234.66 170.02 1233.33 171.93C1232 173.84 1230.79 175.98 1229.7 178.36C1228.61 180.74 1227.8 183.18 1227.27 185.67L1226.14 191.18C1225.61 191.37 1224.92 191.46 1224.07 191.46C1223.22 191.46 1222.47 191.36 1221.8 191.18L1225.73 169.42C1225.91 168.57 1226.01 167.91 1226.03 167.44C1226.05 166.97 1226.06 166.69 1226.06 166.59C1226.06 165.41 1225.84 164.82 1225.39 164.82C1225.21 164.82 1224.98 164.93 1224.69 165.14C1224.4 165.35 1224.08 165.62 1223.72 165.95C1223.14 166.47 1222.48 167.2 1221.72 168.14C1221.63 168.14 1221.46 167.92 1221.22 167.47C1220.98 167.02 1220.85 166.7 1220.85 166.52C1221.21 165.86 1221.85 165.06 1222.78 164.12C1223.71 163.18 1224.71 162.33 1225.78 161.58C1226.85 160.83 1227.76 160.45 1228.51 160.45C1229.22 160.45 1229.78 160.79 1230.18 161.47C1230.58 162.15 1230.78 163.04 1230.78 164.12C1230.78 165.11 1230.65 166.36 1230.38 167.86L1229.18 174.36C1229.4 173.94 1229.76 173.36 1230.25 172.63C1230.74 171.9 1231.36 171.02 1232.12 169.98C1233.1 168.57 1234.25 167.13 1235.59 165.67C1236.92 164.21 1238.23 162.97 1239.52 161.96C1240.81 160.95 1241.9 160.44 1242.79 160.44C1245.01 160.44 1246.12 161.99 1246.12 165.1C1246.12 166.14 1246.04 167.3 1245.89 168.6C1245.73 169.9 1245.5 171.3 1245.19 172.8L1242.99 183.68C1242.86 184.24 1242.79 184.83 1242.79 185.45C1242.79 186.63 1243.01 187.22 1243.46 187.22C1243.81 187.22 1244.25 187.01 1244.76 186.58C1245.27 186.16 1245.78 185.67 1246.29 185.13C1246.8 184.59 1247.19 184.15 1247.46 183.82L1247.86 183.33C1247.95 183.33 1248.12 183.55 1248.36 184C1248.6 184.45 1248.73 184.77 1248.73 184.95C1248.37 185.61 1247.7 186.47 1246.7 187.53C1245.7 188.59 1244.62 189.53 1243.47 190.36C1242.31 191.18 1241.27 191.6 1240.34 191.6H1240.33Z" fill="white"/>
<path d="M1269.27 191.6C1268.56 191.6 1268 191.26 1267.6 190.58C1267.2 189.9 1267 189.01 1267 187.93C1267 187.55 1267.03 187.05 1267.1 186.41C1267.17 185.77 1267.29 185.03 1267.47 184.18L1267.8 182.34C1267.22 183.47 1266.42 184.75 1265.4 186.19C1264.38 187.63 1263.26 188.87 1262.03 189.93C1260.81 190.99 1259.6 191.52 1258.4 191.52C1256.44 191.52 1254.9 190.59 1253.77 188.73C1252.64 186.87 1252.07 184.62 1252.07 181.98C1252.07 179.34 1252.63 176.75 1253.74 174.21C1254.85 171.67 1256.33 169.36 1258.17 167.29C1260.01 165.22 1262.07 163.56 1264.34 162.31C1266.61 161.06 1268.87 160.44 1271.14 160.44C1272.92 160.44 1274.54 160.75 1276.01 161.36L1272.14 182.63C1272.01 183.43 1271.91 184.03 1271.84 184.43C1271.77 184.83 1271.74 185.24 1271.74 185.67C1271.74 186.71 1271.96 187.22 1272.41 187.22C1272.76 187.22 1273.2 187.01 1273.71 186.58C1274.22 186.16 1274.73 185.67 1275.24 185.13C1275.75 184.59 1276.14 184.15 1276.41 183.82L1276.81 183.33C1276.9 183.33 1277.06 183.55 1277.31 184C1277.55 184.45 1277.68 184.77 1277.68 184.95C1277.32 185.61 1276.66 186.47 1275.68 187.53C1274.7 188.59 1273.64 189.53 1272.48 190.36C1271.32 191.18 1270.26 191.6 1269.28 191.6H1269.27ZM1260.41 187.43C1261.25 187.43 1262.14 186.96 1263.08 186.02C1264.01 185.08 1264.92 183.83 1265.81 182.28C1266.7 180.73 1267.5 179.03 1268.21 177.19C1268.92 175.35 1269.43 173.56 1269.74 171.82L1271.07 164.61C1270.54 164 1269.63 163.69 1268.34 163.69C1267.05 163.69 1265.67 164.18 1264.34 165.17C1263.01 166.16 1261.78 167.47 1260.67 169.09C1259.56 170.71 1258.67 172.53 1258 174.53C1257.33 176.53 1257 178.52 1257 180.5C1257 185.12 1258.13 187.42 1260.4 187.42L1260.41 187.43Z" fill="white"/>
<path d="M1287.76 207.64C1284.69 207.64 1282.19 207.03 1280.26 205.8C1278.33 204.57 1277.36 202.88 1277.36 200.71C1277.36 198.92 1277.88 197.41 1278.93 196.19C1279.97 194.96 1281.25 193.92 1282.76 193.05C1284.27 192.18 1285.67 191.41 1286.96 190.75L1285.76 189.9C1284.65 189.15 1284.09 188.3 1284.09 187.36C1284.09 186.79 1284.47 186.18 1285.22 185.52C1285.98 184.86 1286.88 184.25 1287.92 183.68C1288.96 183.11 1289.91 182.74 1290.75 182.55C1289.86 182.55 1288.91 182.32 1287.88 181.84C1286.77 181.37 1285.71 180.51 1284.71 179.26C1283.71 178.01 1283.21 176.54 1283.21 174.84C1283.21 172.2 1283.82 169.79 1285.04 167.6C1286.26 165.41 1287.83 163.66 1289.74 162.34C1291.65 161.02 1293.67 160.36 1295.81 160.36C1297.01 160.36 1298.04 160.51 1298.91 160.82C1299.78 161.13 1300.66 161.44 1301.58 161.77C1302.49 162.1 1303.59 162.26 1304.88 162.26H1307.75C1308.02 162.26 1308.15 162.45 1308.15 162.83C1308.15 163.16 1308.07 163.56 1307.92 164.03C1307.76 164.5 1307.6 164.83 1307.42 165.02H1303.69C1303.42 165.02 1303.29 165.16 1303.29 165.44C1303.56 167.14 1303.69 168.36 1303.69 169.11C1303.69 171.84 1303.13 174.22 1302.02 176.25C1300.91 178.28 1299.44 179.83 1297.62 180.91C1296.6 181.57 1295.54 182.16 1294.45 182.68C1293.36 183.2 1292.45 183.69 1291.72 184.16C1290.99 184.63 1290.62 185.15 1290.62 185.71C1290.62 186.13 1291.12 186.58 1292.12 187.05C1293.12 187.52 1294.28 187.99 1295.59 188.46C1296.9 188.93 1298 189.4 1298.89 189.87C1300.13 190.53 1301.19 191.45 1302.06 192.63C1302.93 193.81 1303.36 195.15 1303.36 196.66C1303.36 200 1301.95 202.67 1299.13 204.64C1296.31 206.62 1292.52 207.61 1287.77 207.61L1287.76 207.64ZM1291.02 204.6C1293.2 204.6 1295.09 204.12 1296.69 203.15C1298.29 202.18 1299.09 200.97 1299.09 199.51C1299.09 198.05 1298.63 196.78 1297.72 195.84C1296.81 194.9 1295.64 194.11 1294.22 193.47C1292.8 192.83 1291.31 192.26 1289.75 191.74C1288.91 192.12 1288.29 192.4 1287.92 192.59C1287.54 192.78 1286.91 193.13 1286.02 193.65C1283.53 195.06 1282.29 196.83 1282.29 198.95C1282.29 202.72 1285.2 204.6 1291.02 204.6ZM1292.29 180.16C1293.53 180.16 1294.64 179.68 1295.62 178.71C1296.6 177.75 1297.36 176.51 1297.92 175C1298.48 173.49 1298.75 171.96 1298.75 170.41C1298.75 168.53 1298.39 166.83 1297.68 165.32C1296.97 163.81 1295.99 163.06 1294.75 163.06C1293.51 163.06 1292.38 163.58 1291.38 164.61C1290.38 165.65 1289.6 166.98 1289.05 168.6C1288.49 170.22 1288.22 171.93 1288.22 173.72C1288.22 175.51 1288.58 177.09 1289.29 178.31C1290 179.54 1291 180.15 1292.29 180.15V180.16Z" fill="white"/>
<path d="M1314.97 191.6C1312.66 191.6 1310.89 190.65 1309.67 188.74C1308.45 186.83 1307.84 184.21 1307.84 180.86C1307.84 178.6 1308.28 176.28 1309.17 173.9C1310.06 171.52 1311.24 169.31 1312.7 167.26C1314.17 165.21 1315.77 163.56 1317.5 162.31C1319.23 161.06 1320.94 160.44 1322.63 160.44C1324.67 160.44 1326.15 160.99 1327.06 162.1C1327.97 163.21 1328.43 164.42 1328.43 165.74C1328.43 167.77 1327.43 169.82 1325.43 171.89C1324.1 173.21 1322.66 174.35 1321.13 175.32C1319.6 176.29 1318.12 177.02 1316.7 177.51C1315.28 178 1314.08 178.25 1313.1 178.25C1312.92 178.25 1312.83 179.07 1312.83 180.72C1312.83 182.84 1313.22 184.45 1314 185.56C1314.78 186.67 1315.83 187.22 1317.17 187.22C1318.37 187.22 1319.45 186.84 1320.4 186.09C1321.36 185.34 1322.28 184.49 1323.17 183.55L1323.37 183.34C1323.46 183.34 1323.62 183.56 1323.87 184.01C1324.11 184.46 1324.24 184.78 1324.24 184.96C1323.84 185.71 1323.13 186.61 1322.11 187.65C1321.09 188.69 1319.95 189.61 1318.71 190.41C1317.47 191.21 1316.22 191.61 1314.98 191.61L1314.97 191.6ZM1313.57 175.78C1314.37 175.78 1315.34 175.47 1316.47 174.86C1317.6 174.25 1318.71 173.44 1319.8 172.42C1320.89 171.41 1321.8 170.29 1322.53 169.06C1323.26 167.84 1323.63 166.63 1323.63 165.46C1323.63 164.05 1323.07 163.34 1321.96 163.34C1320.85 163.34 1319.85 163.8 1318.83 164.72C1317.81 165.64 1316.89 166.77 1316.06 168.11C1315.24 169.45 1314.57 170.81 1314.06 172.17C1313.55 173.54 1313.29 174.64 1313.29 175.49C1313.29 175.68 1313.38 175.77 1313.56 175.77L1313.57 175.78Z" fill="white"/>
<path d="M1365.11 191.6C1364.4 191.6 1363.84 191.26 1363.44 190.58C1363.04 189.9 1362.84 189.01 1362.84 187.93C1362.84 187.55 1362.87 187.06 1362.94 186.45C1363.01 185.84 1363.13 185.08 1363.31 184.19L1365.64 172.53C1365.82 171.73 1365.94 171.01 1366.01 170.37C1366.08 169.73 1366.11 169.18 1366.11 168.71C1366.11 167.96 1366.05 167.26 1365.94 166.63C1365.83 165.99 1365.46 165.68 1364.84 165.68C1364.08 165.68 1363.11 166.24 1361.91 167.38C1360.71 168.51 1359.47 169.99 1358.18 171.83C1356.89 173.67 1355.74 175.69 1354.71 177.91C1353.69 180.12 1352.98 182.31 1352.58 184.48L1351.38 191.19H1346.91L1350.64 171.12C1350.73 170.6 1350.8 170.12 1350.84 169.67C1350.88 169.22 1350.91 168.81 1350.91 168.43C1350.91 166.59 1350.47 165.67 1349.58 165.67C1348.78 165.67 1347.78 166.29 1346.58 167.54C1345.38 168.79 1344.16 170.4 1342.91 172.38C1341.67 174.36 1340.54 176.46 1339.54 178.67C1338.54 180.88 1337.84 182.98 1337.44 184.96L1336.24 191.18C1335.66 191.27 1335.18 191.34 1334.81 191.39C1334.43 191.44 1334.15 191.46 1333.98 191.46C1333.81 191.46 1333.54 191.44 1333.18 191.39C1332.82 191.34 1332.36 191.27 1331.78 191.18L1335.78 169.42C1335.87 168.57 1335.95 167.91 1336.01 167.44C1336.08 166.97 1336.11 166.69 1336.11 166.59C1336.11 165.41 1335.89 164.82 1335.44 164.82C1335.26 164.82 1335.03 164.93 1334.74 165.14C1334.45 165.35 1334.13 165.62 1333.77 165.95C1333.19 166.47 1332.53 167.2 1331.77 168.14C1331.68 168.14 1331.51 167.92 1331.27 167.47C1331.03 167.02 1330.9 166.7 1330.9 166.52C1331.26 165.86 1331.9 165.06 1332.83 164.12C1333.76 163.18 1334.76 162.33 1335.83 161.58C1336.9 160.83 1337.81 160.45 1338.56 160.45C1339.27 160.45 1339.83 160.79 1340.23 161.47C1340.63 162.15 1340.83 163.04 1340.83 164.12C1340.83 165.11 1340.7 166.36 1340.43 167.86L1339.23 174.43C1340.03 172.92 1340.97 171.36 1342.06 169.73C1343.15 168.11 1344.26 166.59 1345.39 165.17C1346.52 163.76 1347.61 162.62 1348.66 161.74C1349.7 160.87 1350.63 160.43 1351.43 160.43C1352.63 160.43 1353.56 160.81 1354.23 161.56C1354.85 162.31 1355.23 163.1 1355.36 163.93C1355.49 164.75 1355.56 165.83 1355.56 167.14C1355.56 167.52 1355.48 168.24 1355.33 169.3C1355.17 170.36 1354.94 171.74 1354.63 173.43C1355.39 172.06 1356.3 170.64 1357.36 169.16C1358.43 167.68 1359.56 166.26 1360.76 164.92C1361.96 163.58 1363.11 162.49 1364.23 161.67C1365.34 160.85 1366.3 160.43 1367.1 160.43C1368.57 160.43 1369.57 160.82 1370.1 161.6C1370.63 162.38 1370.9 163.54 1370.9 165.1C1370.9 166.14 1370.82 167.3 1370.67 168.6C1370.51 169.9 1370.28 171.3 1369.97 172.8L1367.77 183.68C1367.64 184.24 1367.57 184.83 1367.57 185.45C1367.57 186.63 1367.79 187.22 1368.24 187.22C1368.73 187.22 1369.22 187.01 1369.71 186.58C1370.2 186.16 1370.67 185.67 1371.11 185.13C1371.55 184.59 1371.93 184.15 1372.24 183.82L1372.64 183.33C1372.73 183.33 1372.9 183.55 1373.14 184C1373.38 184.45 1373.51 184.77 1373.51 184.95C1373.15 185.61 1372.48 186.47 1371.48 187.53C1370.48 188.59 1369.4 189.53 1368.25 190.36C1367.09 191.18 1366.05 191.6 1365.12 191.6H1365.11Z" fill="white"/>
<path d="M1383 191.6C1380.69 191.6 1378.92 190.65 1377.7 188.74C1376.48 186.83 1375.87 184.21 1375.87 180.86C1375.87 178.6 1376.31 176.28 1377.2 173.9C1378.09 171.52 1379.27 169.31 1380.73 167.26C1382.2 165.21 1383.8 163.56 1385.53 162.31C1387.26 161.06 1388.97 160.44 1390.66 160.44C1392.7 160.44 1394.18 160.99 1395.09 162.1C1396 163.21 1396.46 164.42 1396.46 165.74C1396.46 167.77 1395.46 169.82 1393.46 171.89C1392.13 173.21 1390.69 174.35 1389.16 175.32C1387.63 176.29 1386.15 177.02 1384.73 177.51C1383.31 178 1382.11 178.25 1381.13 178.25C1380.95 178.25 1380.86 179.07 1380.86 180.72C1380.86 182.84 1381.25 184.45 1382.03 185.56C1382.81 186.67 1383.86 187.22 1385.2 187.22C1386.4 187.22 1387.48 186.84 1388.43 186.09C1389.39 185.34 1390.31 184.49 1391.2 183.55L1391.4 183.34C1391.49 183.34 1391.65 183.56 1391.9 184.01C1392.14 184.46 1392.27 184.78 1392.27 184.96C1391.87 185.71 1391.16 186.61 1390.14 187.65C1389.12 188.69 1387.98 189.61 1386.74 190.41C1385.5 191.21 1384.25 191.61 1383.01 191.61L1383 191.6ZM1381.6 175.78C1382.4 175.78 1383.37 175.47 1384.5 174.86C1385.63 174.25 1386.74 173.44 1387.83 172.42C1388.92 171.41 1389.83 170.29 1390.56 169.06C1391.29 167.84 1391.66 166.63 1391.66 165.46C1391.66 164.05 1391.1 163.34 1389.99 163.34C1388.88 163.34 1387.88 163.8 1386.86 164.72C1385.84 165.64 1384.92 166.77 1384.09 168.11C1383.27 169.45 1382.6 170.81 1382.09 172.17C1381.58 173.54 1381.32 174.64 1381.32 175.49C1381.32 175.68 1381.41 175.77 1381.59 175.77L1381.6 175.78Z" fill="white"/>
<path d="M1417.34 191.6C1416.63 191.6 1416.07 191.26 1415.67 190.58C1415.27 189.9 1415.07 189.01 1415.07 187.93C1415.07 187.55 1415.1 187.06 1415.17 186.45C1415.24 185.84 1415.36 185.08 1415.54 184.19L1417.87 172.53C1418.05 171.73 1418.17 171.01 1418.24 170.37C1418.31 169.73 1418.34 169.18 1418.34 168.71C1418.34 166.69 1417.92 165.67 1417.07 165.67C1416.36 165.67 1415.39 166.23 1414.17 167.37C1412.95 168.5 1411.67 170.02 1410.34 171.93C1409.01 173.84 1407.8 175.98 1406.71 178.36C1405.62 180.74 1404.81 183.18 1404.28 185.67L1403.15 191.18C1402.62 191.37 1401.93 191.46 1401.08 191.46C1400.23 191.46 1399.48 191.36 1398.81 191.18L1402.74 169.42C1402.92 168.57 1403.02 167.91 1403.04 167.44C1403.06 166.97 1403.07 166.69 1403.07 166.59C1403.07 165.41 1402.85 164.82 1402.4 164.82C1402.22 164.82 1401.99 164.93 1401.7 165.14C1401.41 165.35 1401.09 165.62 1400.73 165.95C1400.15 166.47 1399.49 167.2 1398.73 168.14C1398.64 168.14 1398.47 167.92 1398.23 167.47C1397.99 167.02 1397.86 166.7 1397.86 166.52C1398.22 165.86 1398.86 165.06 1399.79 164.12C1400.72 163.18 1401.72 162.33 1402.79 161.58C1403.86 160.83 1404.77 160.45 1405.52 160.45C1406.23 160.45 1406.79 160.79 1407.19 161.47C1407.59 162.15 1407.79 163.04 1407.79 164.12C1407.79 165.11 1407.66 166.36 1407.39 167.86L1406.19 174.36C1406.41 173.94 1406.77 173.36 1407.26 172.63C1407.75 171.9 1408.37 171.02 1409.13 169.98C1410.11 168.57 1411.26 167.13 1412.6 165.67C1413.93 164.21 1415.24 162.97 1416.53 161.96C1417.82 160.95 1418.91 160.44 1419.8 160.44C1422.02 160.44 1423.13 161.99 1423.13 165.1C1423.13 166.14 1423.05 167.3 1422.9 168.6C1422.74 169.9 1422.51 171.3 1422.2 172.8L1420 183.68C1419.87 184.24 1419.8 184.83 1419.8 185.45C1419.8 186.63 1420.02 187.22 1420.47 187.22C1420.82 187.22 1421.26 187.01 1421.77 186.58C1422.28 186.16 1422.79 185.67 1423.3 185.13C1423.81 184.59 1424.2 184.15 1424.47 183.82L1424.87 183.33C1424.96 183.33 1425.13 183.55 1425.37 184C1425.61 184.45 1425.74 184.77 1425.74 184.95C1425.38 185.61 1424.71 186.47 1423.71 187.53C1422.71 188.59 1421.63 189.53 1420.48 190.36C1419.32 191.18 1418.28 191.6 1417.35 191.6H1417.34Z" fill="white"/>
<path d="M1432.89 191.6C1432.18 191.6 1431.62 191.26 1431.22 190.58C1430.82 189.9 1430.62 189.01 1430.62 187.93C1430.62 187.55 1430.65 187.06 1430.72 186.45C1430.79 185.84 1430.91 185.08 1431.09 184.19L1434.69 164.48H1429.96C1429.83 164.48 1429.76 164.22 1429.76 163.7C1429.76 163.09 1430.03 162.36 1430.56 161.51H1435.23L1436.83 152.89C1436.87 152.42 1437.96 152.18 1440.1 152.18C1440.72 152.18 1441.12 152.2 1441.3 152.25L1439.63 161.51H1445.7C1445.92 161.51 1446.03 161.82 1446.03 162.43C1446.03 163 1445.83 163.68 1445.43 164.48H1439.1L1435.57 183.7C1435.44 184.26 1435.37 184.85 1435.37 185.47C1435.37 186.65 1435.59 187.24 1436.04 187.24C1436.79 187.24 1437.54 186.8 1438.27 185.93C1439 185.06 1439.59 184.36 1440.04 183.85L1440.44 183.36C1440.53 183.36 1440.7 183.58 1440.94 184.03C1441.18 184.48 1441.31 184.8 1441.31 184.98C1440.91 185.64 1440.22 186.5 1439.24 187.56C1438.26 188.62 1437.2 189.56 1436.04 190.39C1434.88 191.21 1433.84 191.63 1432.91 191.63L1432.89 191.6Z" fill="white"/>
<path d="M1096.17 19.59C1098.9 86.98 1098.93 155.31 1096.17 222.71C1093.41 155.32 1093.43 86.99 1096.17 19.59Z" fill="#DCBC65"/>
</svg>
