<svg width="165" height="164" viewBox="0 0 165 164" fill="none" xmlns="http://www.w3.org/2000/svg">
<path d="M164.75 100.42V113.56H158.97C160.7 109.36 162.07 104.96 163.03 100.42H164.75Z" fill="white"/>
<path d="M164.75 0.0300293V84.19C164.75 89.76 164.16 95.19 163.03 100.43H139.79V42.21L125.22 17.16L110.65 42.21V100.43H98.2399V65.2L83.6699 44.89L69.0999 65.2V100.43H56.6899V85.9L42.1199 69.85L27.5499 85.9V100.43H3.27991V77.37C3.27991 34.66 37.8999 0.0300293 80.6099 0.0300293H164.77H164.75Z" fill="#092340"/>
<path d="M139.79 100.42H163.03C162.07 104.96 160.7 109.36 158.97 113.56H139.79V100.42Z" fill="white"/>
<path d="M139.79 113.56H158.97C154.65 124.1 148.05 133.48 139.79 141.08V113.56Z" fill="#DCBC65"/>
<path d="M139.79 141.08V163.94H110.64V157.98C121.62 154.53 131.53 148.7 139.79 141.09V141.08Z" fill="white"/>
<path d="M139.79 113.56V141.08C131.53 148.69 121.62 154.52 110.64 157.97V113.56H139.79Z" fill="white"/>
<path d="M139.79 100.42H110.64V113.56H139.79V100.42Z" fill="white"/>
<path d="M139.79 42.2001V100.42H110.64V42.2001L125.22 17.1501L139.79 42.2001Z" fill="white"/>
<path d="M110.64 113.56V157.97C106.63 159.23 102.49 160.17 98.23 160.76V113.56H110.64Z" fill="#DCBC65"/>
<path d="M110.64 100.42H98.23V113.56H110.64V100.42Z" fill="white"/>
<path d="M98.2299 160.76V163.93H69.08V161.52H87.41C91.08 161.52 94.6899 161.26 98.2299 160.76Z" fill="white"/>
<path d="M98.2299 113.56V160.76C94.6999 161.26 91.08 161.52 87.41 161.52H69.08V113.56H98.2299Z" fill="white"/>
<path d="M98.24 100.42H69.09V113.56H98.24V100.42Z" fill="white"/>
<path d="M98.23 65.1901V100.42H69.09V65.1901L83.66 44.8801L98.23 65.1901Z" fill="white"/>
<path d="M69.0899 113.56H56.6799V161.52H69.0899V113.56Z" fill="#DCBC65"/>
<path d="M69.0899 100.42H56.6799V113.56H69.0899V100.42Z" fill="white"/>
<path d="M56.6799 161.52H27.5299V163.93H56.6799V161.52Z" fill="white"/>
<path d="M56.6799 113.56H27.5299V161.52H56.6799V113.56Z" fill="white"/>
<path d="M56.6799 100.42H27.5299V113.56H56.6799V100.42Z" fill="white"/>
<path d="M56.6799 85.9001V100.42H27.5299V85.9001L42.1099 69.8401L56.6799 85.9001Z" fill="white"/>
<path d="M27.53 113.56H3.26001V161.52H27.53V113.56Z" fill="#DCBC65"/>
<path d="M27.53 100.42H3.26001V113.56H27.53V100.42Z" fill="white"/>
<path d="M3.26995 100.42H0.699951V113.56H3.26995V100.42Z" fill="white"/>
</svg>
